<svg id="Слой_1" data-name="Слой 1" xmlns="http://www.w3.org/2000/svg" viewBox="0 0 1403.96 1120.59"><g opacity="0.8"><path d="M1403.82,296.76H1353a35.62,35.62,0,0,1-35.58-35.58v-50.8A35.62,35.62,0,0,1,1353,174.8h50.8a35.61,35.61,0,0,1,35.57,35.58v50.8A35.61,35.61,0,0,1,1403.82,296.76Zm-50.8-108a21.6,21.6,0,0,0-21.58,21.58v50.8A21.6,21.6,0,0,0,1353,282.76h50.8a21.59,21.59,0,0,0,21.57-21.58v-50.8a21.59,21.59,0,0,0-21.57-21.58Z" transform="translate(-448.4 -159.93)" fill="#9ec8ff"/></g><path d="M1381.59,267.18h-.29a6,6,0,0,1-4.47-2.34l-36.51-47.62a6,6,0,1,1,9.52-7.3l32.2,42,84.07-90.07a6,6,0,1,1,8.77,8.18L1386,265.28A6,6,0,0,1,1381.59,267.18Z" transform="translate(-448.4 -159.93)" fill="#f37168"/><rect y="277.67" width="434.74" height="712.57" fill="#99bbeb"/><rect x="22.77" y="292.19" width="397.68" height="670.89" fill="#fff"/><path d="M590.12,721.15c15-32.21,40.3-42.52,81.9-42.52,49.54,0,75.26,18,82.55,44.07C665.86,723.92,590.12,721.15,590.12,721.15Z" transform="translate(-448.4 -159.93)" fill="#9bd6e8"/><path d="M654.73,522c-21,5.88-20.05,17.67-27,28.6s-22.18,18.23-24,25.52,4.68,22.48-3,31-10.33,12.75-7.29,21.26,9.72,21.87,10.33,23.7,9.11,14.58,19.44,16.4,29.77,4.86,39.49,9.11,41-5.44,58.33-4.83,29.16-12.18,27.95-20.68,12.79-25.52,12.76-40.1c0-15.66-18.23-27.34-23.09-37.67S739.18,545.76,721,535c-11.52-6.83-19.44-6.22-28.55-9.26S668.09,518.27,654.73,522Z" transform="translate(-448.4 -159.93)" fill="#3a384d"/><path d="M680.24,704.34c-4.74,7-8.22,7.29-13.36,0-4.1-5.8-12.15-19-12.15-25.65V612a12.18,12.18,0,0,1,12.15-12.15h13.36A12.18,12.18,0,0,1,692.4,612v66.7C692.4,685.37,684.5,698.06,680.24,704.34Z" transform="translate(-448.4 -159.93)" fill="#f09959"/><path d="M680.24,599.84H666.88A12.18,12.18,0,0,0,654.73,612V671.5c15,4.78,28.7-4.72,37.67-15.42V612A12.18,12.18,0,0,0,680.24,599.84Z" transform="translate(-448.4 -159.93)" fill="#e38540"/><ellipse cx="225.16" cy="440.58" rx="40.4" ry="55.05" fill="#f09959"/><path d="M692.4,556.7c-25.52,43.14-63.19,38.88-63.19,38.88s.91-57.11,30.83-60.15,47.54,9,53.62,28.79,0,32.88,0,32.88a52.4,52.4,0,0,1-14.58-19.75A141.63,141.63,0,0,1,692.4,556.7Z" transform="translate(-448.4 -159.93)" fill="#3a384d"/><ellipse cx="627.69" cy="604.22" rx="10.63" ry="15.95" transform="translate(-646.92 167.79) rotate(-25.41)" fill="#f09959"/><path d="M708,599.66c-3.77,8-2.54,16.45,2.77,19s12.66-1.89,16.44-9.84,2.55-16.45-2.76-19S711.78,591.71,708,599.66Z" transform="translate(-448.4 -159.93)" fill="#f09959"/><path d="M688.75,630.37s-6.8,8.81-15.19,8.81-15.19-8.81-15.19-8.81Z" transform="translate(-448.4 -159.93)" fill="#fff"/><path d="M721.66,808.48h-102a11.87,11.87,0,0,1,0-23.73h102a11.87,11.87,0,0,1,0,23.73Z" transform="translate(-448.4 -159.93)" fill="#99bbeb"/><path d="M740.34,844.93H600.94a11.87,11.87,0,0,1,0-23.73h139.4a11.87,11.87,0,0,1,0,23.73Z" transform="translate(-448.4 -159.93)" fill="#99bbeb"/><path d="M840.18,976H501.1a6.89,6.89,0,0,1,0-13.77H840.18a6.89,6.89,0,0,1,0,13.77Z" transform="translate(-448.4 -159.93)" fill="#99bbeb"/><path d="M840.18,1008H501.1a6.89,6.89,0,0,1,0-13.77H840.18a6.89,6.89,0,0,1,0,13.77Z" transform="translate(-448.4 -159.93)" fill="#99bbeb"/><path d="M840.18,1040H501.1a6.89,6.89,0,0,1,0-13.77H840.18a6.89,6.89,0,0,1,0,13.77Z" transform="translate(-448.4 -159.93)" fill="#99bbeb"/><path d="M792.75,729.06H548.53a12.3,12.3,0,0,1-12.29-12.29V491.68a12.3,12.3,0,0,1,12.29-12.29H792.75A12.3,12.3,0,0,1,805,491.68V716.77A12.3,12.3,0,0,1,792.75,729.06ZM548.53,489.39a2.32,2.32,0,0,0-2.29,2.29V716.77a2.32,2.32,0,0,0,2.29,2.29H792.75a2.32,2.32,0,0,0,2.29-2.29V491.68a2.32,2.32,0,0,0-2.29-2.29Z" transform="translate(-448.4 -159.93)" fill="#99bbeb"/><polygon points="135.37 715.95 142.44 730.28 158.25 732.58 146.81 743.73 149.51 759.48 135.37 752.04 121.22 759.48 123.92 743.73 112.48 732.58 128.29 730.28 135.37 715.95" fill="#99bbeb"/><polygon points="193.28 715.95 200.35 730.28 216.16 732.58 204.72 743.73 207.42 759.48 193.28 752.04 179.14 759.48 181.84 743.73 170.4 732.58 186.21 730.28 193.28 715.95" fill="#99bbeb"/><polygon points="251.19 715.95 258.26 730.28 274.07 732.58 262.63 743.73 265.33 759.48 251.19 752.04 237.05 759.48 239.75 743.73 228.31 732.58 244.12 730.28 251.19 715.95" fill="#99bbeb"/><polygon points="309.11 715.95 316.18 730.28 331.99 732.58 320.55 743.73 323.25 759.48 309.11 752.04 294.97 759.48 297.67 743.73 286.23 732.58 302.04 730.28 309.11 715.95" fill="#99bbeb"/><rect x="969.21" y="277.67" width="434.74" height="712.57" fill="#99bbeb"/><rect x="991.98" y="292.19" width="397.68" height="670.89" fill="#fff"/><path d="M1578.23,596.88c0,31.91,19.21,83.41,64.54,81.76s55.36-50.74,57.12-64.59S1578.23,596.88,1578.23,596.88Z" transform="translate(-448.4 -159.93)" fill="#7a4e34"/><path d="M1559.34,721.15c15-32.21,40.3-42.52,81.9-42.52,49.53,0,75.25,18,82.54,44.07C1635.08,723.92,1559.34,721.15,1559.34,721.15Z" transform="translate(-448.4 -159.93)" fill="#d54a41"/><path d="M1649.46,704.34c-4.75,7-8.22,7.29-13.37,0-4.09-5.8-12.15-19-12.15-25.65V612a12.18,12.18,0,0,1,12.15-12.15h13.37A12.18,12.18,0,0,1,1661.61,612v66.7C1661.61,685.37,1653.71,698.06,1649.46,704.34Z" transform="translate(-448.4 -159.93)" fill="#f09959"/><path d="M1649.46,599.84h-13.37A12.18,12.18,0,0,0,1623.94,612V671.5c15,4.78,28.71-4.72,37.67-15.42V612A12.18,12.18,0,0,0,1649.46,599.84Z" transform="translate(-448.4 -159.93)" fill="#e38540"/><ellipse cx="1194.37" cy="440.58" rx="40.4" ry="55.05" fill="#f09959"/><path d="M1665,558.67c-4.8,16.93-15.32,16.73-30,22.29s-21.68,11.15-26.48,22c-6.13,13.81,2.78,54.08,2.78,54.08s-37.15-27.79-32.86-71.51,30.08-60.65,54.33-60.65,33.49,14.78,33.49,14.78,12.92.06,25.14,14.53c16.43,19.46,11.37,66.72,0,83.65s-19,22.23-18.7,21.48,10.61-39.64,5.06-63.68S1665,558.67,1665,558.67Z" transform="translate(-448.4 -159.93)" fill="#7a4e34"/><path d="M1658,630.37s-6.8,8.81-15.19,8.81-15.18-8.81-15.18-8.81Z" transform="translate(-448.4 -159.93)" fill="#fff"/><path d="M1690.87,808.48h-102a11.87,11.87,0,1,1,0-23.73h102a11.87,11.87,0,0,1,0,23.73Z" transform="translate(-448.4 -159.93)" fill="#99bbeb"/><path d="M1709.55,844.93H1570.16a11.87,11.87,0,1,1,0-23.73h139.39a11.87,11.87,0,0,1,0,23.73Z" transform="translate(-448.4 -159.93)" fill="#99bbeb"/><path d="M1809.39,976H1470.32a6.89,6.89,0,1,1,0-13.77h339.07a6.89,6.89,0,1,1,0,13.77Z" transform="translate(-448.4 -159.93)" fill="#99bbeb"/><path d="M1809.39,1008H1470.32a6.89,6.89,0,1,1,0-13.77h339.07a6.89,6.89,0,1,1,0,13.77Z" transform="translate(-448.4 -159.93)" fill="#99bbeb"/><path d="M1809.39,1040H1470.32a6.89,6.89,0,1,1,0-13.77h339.07a6.89,6.89,0,1,1,0,13.77Z" transform="translate(-448.4 -159.93)" fill="#99bbeb"/><path d="M1762,729.06H1517.74a12.3,12.3,0,0,1-12.29-12.29V491.68a12.3,12.3,0,0,1,12.29-12.29H1762a12.3,12.3,0,0,1,12.29,12.29V716.77A12.3,12.3,0,0,1,1762,729.06ZM1517.74,489.39a2.32,2.32,0,0,0-2.29,2.29V716.77a2.32,2.32,0,0,0,2.29,2.29H1762a2.32,2.32,0,0,0,2.29-2.29V491.68a2.32,2.32,0,0,0-2.29-2.29Z" transform="translate(-448.4 -159.93)" fill="#99bbeb"/><polygon points="1104.58 715.95 1111.65 730.28 1127.46 732.58 1116.02 743.73 1118.72 759.48 1104.58 752.04 1090.44 759.48 1093.14 743.73 1081.7 732.58 1097.51 730.28 1104.58 715.95" fill="#99bbeb"/><polygon points="1162.49 715.95 1169.56 730.28 1185.38 732.58 1173.93 743.73 1176.63 759.48 1162.49 752.04 1148.35 759.48 1151.05 743.73 1139.61 732.58 1155.42 730.28 1162.49 715.95" fill="#99bbeb"/><polygon points="1220.41 715.95 1227.48 730.28 1243.29 732.58 1231.85 743.73 1234.55 759.48 1220.41 752.04 1206.27 759.48 1208.97 743.73 1197.53 732.58 1213.34 730.28 1220.41 715.95" fill="#99bbeb"/><polygon points="1278.32 715.95 1285.39 730.28 1301.2 732.58 1289.76 743.73 1292.46 759.48 1278.32 752.04 1264.18 759.48 1266.88 743.73 1255.44 732.58 1271.25 730.28 1278.32 715.95" fill="#99bbeb"/><polygon points="1018.09 983.11 331.99 983.11 380.52 280.31 1042.82 280.31 1018.09 983.11" fill="#99bbeb" opacity="0.2"/><rect x="404.06" y="147.32" width="593.79" height="973.26" fill="#99bbeb"/><rect x="435.16" y="167.15" width="543.18" height="916.34" fill="#fff"/><path d="M1104.53,519.55c-.38-1.13-9.89-55.72-11-76.94s34.12-24.26,34.12-24.26,28.8-15.54,49.65-7.58,35,21.35,44.51,38-8.33,68.65-8.33,68.65Z" transform="translate(-448.4 -159.93)" fill="#2e2d3d"/><path d="M1039.17,694.93c-.13-.9,2.44-22.38,2.53-23.25,4.8-45.23,60.56-58,116.19-58,65.37,0,109.72,12,116.8,59,.21,1.38,4,22.91,3.79,24.36C1157.32,698.71,1039.17,694.93,1039.17,694.93Z" transform="translate(-448.4 -159.93)" fill="#d5e1e8"/><path d="M1169.12,648.83c-6.48,9.56-11.23,10-18.26,0-5.59-7.91-24.25-26-24.25-35.11l7.66-91a16.65,16.65,0,0,1,16.59-16.6h18.26a16.65,16.65,0,0,1,16.6,16.6l3.56,91C1189.28,622.85,1174.93,640.26,1169.12,648.83Z" transform="translate(-448.4 -159.93)" fill="#f09959"/><path d="M1169.12,506.1h-18.26a16.65,16.65,0,0,0-16.59,16.6l-6.65,80.75c20.5,6.53,48.18-6.74,60.42-21.35l-2.32-59.4A16.65,16.65,0,0,0,1169.12,506.1Z" transform="translate(-448.4 -159.93)" fill="#e38540"/><path d="M1097.34,620.36l29.27,54.1s15.66-12.89,17.18-10.36-2.78,34.42-2.78,34.42,34.87.47,36.39-1-7.08-34.64-3.54-34.64,14.18,9.61,14.18,9.61l32.68-52.08-7.18-1.75L1160,647.42l-57.26-28.18Z" transform="translate(-448.4 -159.93)" fill="#bdccd4"/><polygon points="682.41 485.36 704.14 499.94 697.41 538.66 726.72 537.02 719.4 501.81 737.42 485.36 728.95 477.38 690.87 477.38 682.41 485.36" fill="#d54a41"/><path d="M1128.12,593.85l-26.88,25.58s27.39,48.71,28.9,48.71,23.25-26.86,23.25-26.86l13.91-.24,22,23.06,25.53-45.18-26-27.6s-22.24,43-26.28,44-4.07,1.52-7.34-1S1128.12,593.85,1128.12,593.85Z" transform="translate(-448.4 -159.93)" fill="#d5e1e8"/><ellipse cx="711.59" cy="347.09" rx="55.18" ry="75.19" fill="#f09959"/><path d="M1110.46,505.86c5.16,10.87,3.47,22.47-3.78,25.91s-17.3-2.58-22.46-13.45-3.47-22.46,3.77-25.9S1105.3,495,1110.46,505.86Z" transform="translate(-448.4 -159.93)" fill="#f09959"/><path d="M1207,505.86c-5.16,10.87-3.47,22.47,3.77,25.91s17.3-2.58,22.46-13.45,3.48-22.46-3.77-25.9S1212.2,495,1207,505.86Z" transform="translate(-448.4 -159.93)" fill="#f09959"/><path d="M1184.47,537.88s-11,17.75-24.48,17.75-24.48-17.75-24.48-17.75Z" transform="translate(-448.4 -159.93)" fill="#fff"/><path d="M1127.62,455.87c22.74-15.92,33-13.26,50,12.89s37.53,26.62,37.53,26.62l2.65-27.12s-25.41-49.16-59.52-42.71-53.5,37.15-53.5,37.15-1.66,57.54,3.1,59.51,5.3-18.58,8.71-22.75-3.41-23.88,1.14-33S1127.62,455.87,1127.62,455.87Z" transform="translate(-448.4 -159.93)" fill="#2e2d3d"/><path d="M1200.77,485.44c7.94,8.69,4.93,43.21,9.1,42.83s5.69-33,4.55-36.39S1200.77,485.44,1200.77,485.44Z" transform="translate(-448.4 -159.93)" fill="#2e2d3d"/><path d="M1282.74,813.82H1029.26a16.21,16.21,0,0,1,0-32.41h253.48a16.21,16.21,0,1,1,0,32.41Z" transform="translate(-448.4 -159.93)" fill="#99bbeb"/><path d="M1251.2,863.61H1060.81a16.21,16.21,0,1,1,0-32.41H1251.2a16.21,16.21,0,0,1,0,32.41Z" transform="translate(-448.4 -159.93)" fill="#99bbeb"/><path d="M1387.57,1042.66H924.44a9.4,9.4,0,1,1,0-18.8h463.13a9.4,9.4,0,1,1,0,18.8Z" transform="translate(-448.4 -159.93)" fill="#99bbeb"/><path d="M1387.57,1086.36H924.44a9.4,9.4,0,0,1,0-18.8h463.13a9.4,9.4,0,1,1,0,18.8Z" transform="translate(-448.4 -159.93)" fill="#99bbeb"/><path d="M1387.57,1130.07H924.44a9.41,9.41,0,0,1,0-18.81h463.13a9.41,9.41,0,0,1,0,18.81Z" transform="translate(-448.4 -159.93)" fill="#99bbeb"/><path d="M1322.79,703.52H989.21a15,15,0,0,1-15-15V381.12a15,15,0,0,1,15-15h333.58a15,15,0,0,1,15,15V688.56A15,15,0,0,1,1322.79,703.52ZM989.21,376.16a5,5,0,0,0-5,5V688.56a5,5,0,0,0,5,5h333.58a5,5,0,0,0,5-5V381.12a5,5,0,0,0-5-5Z" transform="translate(-448.4 -159.93)" fill="#99bbeb"/><polygon points="548.77 745.95 558.42 765.52 580.02 768.66 564.39 783.89 568.08 805.4 548.77 795.24 529.45 805.4 533.14 783.89 517.51 768.66 539.11 765.52 548.77 745.95" fill="#99bbeb"/><polygon points="627.87 745.95 637.53 765.52 659.12 768.66 643.5 783.89 647.18 805.4 627.87 795.24 608.55 805.4 612.24 783.89 596.62 768.66 618.21 765.52 627.87 745.95" fill="#99bbeb"/><polygon points="706.97 745.95 716.63 765.52 738.22 768.66 722.6 783.89 726.29 805.4 706.97 795.24 687.66 805.4 691.35 783.89 675.72 768.66 697.31 765.52 706.97 745.95" fill="#99bbeb"/><polygon points="786.07 745.95 795.73 765.52 817.33 768.66 801.7 783.89 805.39 805.4 786.07 795.24 766.76 805.4 770.45 783.89 754.82 768.66 776.42 765.52 786.07 745.95" fill="#99bbeb"/><polygon points="866.43 745.95 876.09 765.52 897.68 768.66 882.06 783.89 885.75 805.4 866.43 795.24 847.12 805.4 850.81 783.89 835.18 768.66 856.77 765.52 866.43 745.95" fill="#99bbeb"/></svg>