<svg id="OBJECTS" xmlns="http://www.w3.org/2000/svg" viewBox="0 0 359.31 390.62"><path d="M234.82,63c100.06,5.38,104.36,113,93.61,154.93s71,51.64,80.69,120.5-53.8,97.9-99,99-80.7-25.82-88.23-59.18-29-49.49-66.7-55.94-105.44-57-93.6-122.65c0,0,2.77-69.83,68.32-116.2C174,52.22,234.82,63,234.82,63Z" transform="translate(-60.24 -61.19)" fill="#e2e7ff" opacity="0.38"/><path d="M170.1,227.85s-2.73-34.76,7.5-57.93c4.09-5.45,6.81-3.41,6.81-3.41s1.37,14.32-2,28-5.45,40.21-5.45,40.21Z" transform="translate(-60.24 -61.19)" fill="#61a27d"/><path d="M168.06,225.13s-.69-16.36-17.72-30.67-20.45-14.32-20.45-14.32,13.63-.68,23.17,5.46,12.95,23.17,13.63,25.9,4.77,13.63,4.77,13.63Z" transform="translate(-60.24 -61.19)" fill="#578b71"/><path d="M179.11,227.63s3.19-16,22.23-27.57,22.41-11,22.41-11-13.36-2.78-23.73,1.81-16.37,20.91-17.46,23.5-6.82,12.73-6.82,12.73Z" transform="translate(-60.24 -61.19)" fill="#578b71"/><path d="M171.46,225.13s-17.72-58.62-33.39-72.25c.68-2,19.08,4.09,24.53,19.08s6.82,37.49,8.86,43.63a101.39,101.39,0,0,0,4.77,11.58" transform="translate(-60.24 -61.19)" fill="#7cc97d"/><path d="M170.1,227.85s6.82-32,24.54-42.94C196,189,176.23,222.4,178.28,237.4S170.1,227.85,170.1,227.85Z" transform="translate(-60.24 -61.19)" fill="#7cc97d"/><path d="M160.37,264h26.21c1.61-10.93,3-20.76,3.22-24.52a35.57,35.57,0,0,0-3.39-17H160.54a35.57,35.57,0,0,0-3.39,17C157.4,243.2,158.76,253,160.37,264Z" transform="translate(-60.24 -61.19)" fill="#a9a7e7"/><rect x="290.74" y="137.5" width="48.07" height="65.04" fill="#24adb2"/><rect x="285.79" y="137.5" width="48.07" height="65.04" fill="#26c6da"/><rect x="273.77" y="130.9" width="48.07" height="71.63" fill="#e1543c"/><rect x="261.75" y="130.9" width="55.14" height="71.63" fill="#ff634d"/><rect x="307.47" y="130.9" width="9.43" height="71.63" fill="#eb594d"/><path d="M101.9,210s-7.54,3.78-10.84,14.61,14.61,40.06,14.61,38.65,17.91-9.43,17.91-9.43l-9-33Z" transform="translate(-60.24 -61.19)" fill="#202f7c"/><polyline points="230.01 206.01 220.05 179.7 195.16 179.7 205.12 206.01" fill="#4f57a0"/><polyline points="139.69 184.91 281.22 184.91 283.69 171.64 142.16 171.64" fill="#e2e7ff"/><path d="M214.93,165.65,202.4,232.83H343.93l12.24-65.63a4.25,4.25,0,0,0-4.17-5H219.1A4.24,4.24,0,0,0,214.93,165.65Z" transform="translate(-60.24 -61.19)" fill="#243fa7"/><polygon points="224.4 196.52 261.87 168.6 225.11 166.48 190.47 193.34 224.4 196.52" fill="#fff"/><path d="M274.16,248.64l9.42-5.18s9.1-3.77,9.37-3.77,1.06.88.09,2.74-3.54,2.29-3.54,2.29l-1.68,4.69,8.72-1.24,2-.47a39.37,39.37,0,0,1-2,4.36,26,26,0,0,1-3.89,2.94s-6.24,5.19-8.48,5.78-10,.94-10,.94l-5-.12-4.6.94a21.4,21.4,0,0,1-2-10.48Z" transform="translate(-60.24 -61.19)" fill="#ff8d68"/><polygon points="269.76 209.13 297.1 387.27 303.7 387.27 285.79 208.19 269.76 209.13" fill="#e2e7ff"/><polygon points="325.38 209.13 352.71 387.27 359.31 387.27 341.4 208.19 325.38 209.13" fill="#e2e7ff"/><polygon points="165.14 209.13 137.81 387.27 131.21 387.27 149.12 208.19 165.14 209.13" fill="#c2d3eb"/><polygon points="109.53 209.13 82.19 387.27 75.6 387.27 93.5 208.19 109.53 209.13" fill="#c2d3eb"/><rect x="99.16" y="207.25" width="246.01" height="8.48" fill="#a9a7e7"/><path d="M410.12,272.2H166.94a4.71,4.71,0,0,1-4.71-4.71h0a4.71,4.71,0,0,1,4.71-4.71H410.12a4.71,4.71,0,0,1,4.71,4.71h0A4.71,4.71,0,0,1,410.12,272.2Z" transform="translate(-60.24 -61.19)" fill="#ffc757"/><path d="M175.09,430.56s1.54-3.79,8-3.12,7.27,1.87,8.16,5.05,3.29,6.51,4.81,7.18,7.12,4.1,11.6,4.63,5.1,3.21,4.18,4.49-17.66,3.09-21.38,2.78c0,0-12.6.36-15.61-.48S174.9,431.8,175.09,430.56Z" transform="translate(-60.24 -61.19)" fill="#201360"/><path d="M176.8,403.42,174.86,433A32.93,32.93,0,0,1,183,437c5.18,3.79,9.42-.8,9.42-.8l1.17-18.59Z" transform="translate(-60.24 -61.19)" fill="#ff8d68"/><path d="M214.3,351.38l-19.08,82s-9.9,1.42-21.92-4.24c0,0,10.61-77.05,11.31-82S212.89,347.14,214.3,351.38Z" transform="translate(-60.24 -61.19)" fill="#202f7c"/><path d="M136.93,139.22s7.84,1.46,13,13,3.91,36.88,1.2,40-11.63,2.61-24.16-.63c-13.23-3.41-18.5-16.58-21.4-25.31C100,149.6,113.62,131.12,136.93,139.22Z" transform="translate(-60.24 -61.19)" fill="#ff8d68"/><path d="M115.18,206.77l4.51-21.59s11.6-4.24,19.51,3.16l2.7,3.28.91,13.8A79,79,0,0,1,115.18,206.77Z" transform="translate(-60.24 -61.19)" fill="#ff8d68"/><path d="M114.93,339.53a195.61,195.61,0,0,0,55.21,6.37c30-1,33.92-9.51,34.85-17.61s-22.37-13-32.5-15.68S127.7,300,118.32,310.09,106.77,332.62,114.93,339.53Z" transform="translate(-60.24 -61.19)" fill="#201360"/><path d="M245.07,430.56s1.55-3.79,8-3.12,7.26,1.87,8.16,5.05,3.29,6.51,4.8,7.18,7.13,4.1,11.6,4.63,5.11,3.21,4.18,4.49-17.65,3.09-21.38,2.78c0,0-12.59.36-15.6-.48S244.88,431.8,245.07,430.56Z" transform="translate(-60.24 -61.19)" fill="#201360"/><path d="M237.63,405.58l7.07,28.74s5.66-1.41,9,1.42,9.42.94,9.42.94l-5.18-22.62Z" transform="translate(-60.24 -61.19)" fill="#ff8d68"/><path d="M179.19,309.44c1.42,0,49.49,16,58.91,23.09,9.43,7.54,24.51,91.54,25.45,93.43s-13.67,7.07-23.09,5.65c-.47-1.88-22.62-72.69-22.62-77.4,0,0-37.7-1.89-53.73-4.72s-26.86-3.29-33.46-20.73,32-18.85,32-18.85Z" transform="translate(-60.24 -61.19)" fill="#202f7c"/><path d="M261.43,247.46s9.19-.23,9.9.71,4,9.42.94,13L269.68,263h-8Z" transform="translate(-60.24 -61.19)" fill="#e2e7ff"/><path d="M113.57,203.63l2.47-6.36s14.85-4.59,27.57,1.06a25.31,25.31,0,0,1,4.95,8.13Z" transform="translate(-60.24 -61.19)" fill="#e2e7ff"/><path d="M110.39,204.34s1.88-3.3,5.18-3.77,18.38-2.36,28.28.47a16.75,16.75,0,0,1,5.65,3.3s14.14,4.71,18.85,7.54,6.13,24.51,7.07,31.58-1.88,14.61-1.88,14.61,11.31,46.18,11.31,52.78-3.77,14.14-17,18.85-49,2.83-61.26-4.71c-3.77-7.54-9.43-97.09-10.37-105.57S110.39,204.34,110.39,204.34Z" transform="translate(-60.24 -61.19)" fill="#202f7c"/><path d="M160.58,210s3.53-2.12,12,3.54,31.82,26.86,34.64,28.28,57.26,4.24,57.26,4.24,7.78,9.89-.7,17.67c0,0-52.55,2.12-62.45,1.41s-42.88-19.79-42.88-19.79S145,225.55,160.58,210Z" transform="translate(-60.24 -61.19)" fill="#202f7c"/><path d="M149.25,241.19s44.07,23.13,49.21,23.87,24.61,0,24.61,0" transform="translate(-60.24 -61.19)" fill="none" stroke="#1b2048" stroke-miterlimit="10" stroke-width="0.83"/><path d="M208.74,247.06s1.47,8.08-3.67,12.86" transform="translate(-60.24 -61.19)" fill="none" stroke="#1b2048" stroke-miterlimit="10" stroke-width="0.83"/><path d="M212.05,244.86s4.4,7,2.2,12.12" transform="translate(-60.24 -61.19)" fill="none" stroke="#1b2048" stroke-miterlimit="10" stroke-width="0.83"/><path d="M148.88,232s-3.67-12.86,9.18-21.3" transform="translate(-60.24 -61.19)" fill="none" stroke="#1b2048" stroke-miterlimit="10" stroke-width="0.83"/><path d="M101.5,219.89s-2.57,22.77-2.57,33.42" transform="translate(-60.24 -61.19)" fill="none" stroke="#1b2048" stroke-miterlimit="10" stroke-width="0.83"/><path d="M114.73,204.83s16.89-1.47,30.85,0" transform="translate(-60.24 -61.19)" fill="none" stroke="#1b2048" stroke-miterlimit="10" stroke-width="0.83"/><path d="M225.27,352.83s8.08-2.57,11-15.05" transform="translate(-60.24 -61.19)" fill="none" stroke="#1b2048" stroke-miterlimit="10" stroke-width="0.83"/><path d="M230.78,353.93s4.77-1.46,7-8.08" transform="translate(-60.24 -61.19)" fill="none" stroke="#1b2048" stroke-miterlimit="10" stroke-width="0.83"/><line x1="141.16" y1="307.07" x2="129.04" y2="367.67" fill="none" stroke="#1b2048" stroke-miterlimit="10" stroke-width="0.83"/><path d="M148.21,154.5A10.91,10.91,0,0,1,144,165.11l.36,7.06s2.12,6.37.71,7.07-1.77-.35-1.77-.35-4.6-7.42-6-7.78,3.18,9.9,3.18,9.9-4.59,7.07-13.08,8.13l1.77-2.47a17.83,17.83,0,0,1-9.9,2.12c-6-.36-10.6-9.55-10.6-9.55s1.06,2.48,0,3.54-7.07-8.13-7.42-19.8l-1.77,3.54A68.05,68.05,0,0,1,103,149.2c3.18-9.19,17.32-15.91,25.1-15.91s15.55.71,17.67,0,1.06,5.31,1.06,5.31a24.5,24.5,0,0,0,1.42-4.6c1.41-1.06,3.53,7.42,2.82,10.6l-.7,3.19s2.47-3.19,2.82-4.95C154.57,142.48,154.21,150.26,148.21,154.5Z" transform="translate(-60.24 -61.19)" fill="#201360"/><path d="M143.08,172.11s-1.43-4.73-5.35-2.24,1.65,13.63,4.93,12.67S143.94,173.91,143.08,172.11Z" transform="translate(-60.24 -61.19)" fill="#ff634d"/><polyline points="226.29 192.87 236.3 190.87 238.31 186.51" fill="none" stroke="#e66657" stroke-miterlimit="10" stroke-width="1.28"/><path d="M296.19,252.29s-5.07,4.24-5.77,4.6-3.89,1.18-3.89,1.18" transform="translate(-60.24 -61.19)" fill="none" stroke="#e66657" stroke-miterlimit="10" stroke-width="1.28"/><path d="M141.49,184.07s-1.41,5,7.07,7.78" transform="translate(-60.24 -61.19)" fill="none" stroke="#e66657" stroke-miterlimit="10" stroke-width="1.28"/><polygon points="274.48 160.12 199.07 160.12 208.5 111.11 283.9 111.11 274.48 160.12" fill="#2e60be"/><path d="M235.08,189.26a2.28,2.28,0,0,0,2.24,2.71h82.09a2.29,2.29,0,0,0,2.24-1.85l1.2-6.28H236.12Z" transform="translate(-60.24 -61.19)" fill="#26c6f8"/><path d="M329.37,135.59H247.28a2.27,2.27,0,0,0-2.23,1.85l-8.93,46.4h86.73l8.76-45.54A2.28,2.28,0,0,0,329.37,135.59Z" transform="translate(-60.24 -61.19)" fill="#cae5ff"/><path d="M273.25,192c1.08-3,1.75-5.11,1.75-5.11s2.47-12.94-8.56-9.62a18.16,18.16,0,0,0-5.62,8.95c-.56,1.88-1.23,3.9-1.88,5.78Z" transform="translate(-60.24 -61.19)" fill="#387ab6"/><path d="M296.09,192c-.2-6.38-.6-11.5-1.29-12.87-2-3.72-10.29-7.09-10.29-7.09l-11.31,1.68s-4.73,1.35-6.25,4.73c-.51,1.14-1.74,6.66-3.06,13.55Z" transform="translate(-60.24 -61.19)" fill="#dce4ff"/><path d="M275.13,164.38a43.41,43.41,0,0,1-2.19,8.75s-.41,2.87,5.61,1.64,5.19-4.24,5.19-4.24V158.64Z" transform="translate(-60.24 -61.19)" fill="#ff8d68"/><path d="M266.68,151.87s.07,11.31,3.32,16.76c2.21,2.29,9.77-1.31,12.95-6.17s3.11-12.18.6-16.25-10.8-2.85-13.23-1.44S266.54,150.06,266.68,151.87Z" transform="translate(-60.24 -61.19)" fill="#ff8d68"/><path d="M282,158.26s2.13-3.29,3.56-1.33-3.52,6-3.9,4.44A5.47,5.47,0,0,1,282,158.26Z" transform="translate(-60.24 -61.19)" fill="#fba894"/><path d="M266.68,151.87s-4-3.49.82-8c2.73-2.05,4.1-.55,7-1.1s8.07,0,10,3,1.23,10,.69,10.67-2.19,1.09-2.19,2.32-.27,2.19-.68,2.19-.41-2.05-.41-3.56a23.74,23.74,0,0,0-1-6.42c-.68-2-3.83-1.92-5.06-1.64S273.79,152.76,266.68,151.87Z" transform="translate(-60.24 -61.19)" fill="#713336"/><path d="M281.58,155.27a1.69,1.69,0,0,1,.23-.1h0Z" transform="translate(-60.24 -61.19)" fill="#505e83" opacity="0.53"/><path d="M281.81,155.17c0,.22.74,6.77-1.86,8.59s-2.81-.5-4.95-.84-3.88-.22-4.84,1.18-.68,2-1.46,1.63c-.17.45,1,3.21,2.81,3.94s6.08-1.52,8-3.2,3.09-2.76,3.43-4.22.17-4.28.56-6.25C283.72,154.51,282.36,154.94,281.81,155.17ZM272,167.25c-2.59-.56-2.25-2.59.39-3.43,0,0,2.82-1.29,3.77.68C276.52,165.79,274.55,167.82,272,167.25Z" transform="translate(-60.24 -61.19)" fill="#713336"/><path d="M283.75,169.67a13.69,13.69,0,0,1-8.7,4.64c-1.09-.42-1.68-2.44-1.68-2.44l-.85,1.26a9.63,9.63,0,0,0,0,3.55c.51.08,2.37-1.18,2.37-1.18s1.26,1.77,2.19,2.11,6.84-3.63,7.43-5.57A4.88,4.88,0,0,0,283.75,169.67Z" transform="translate(-60.24 -61.19)" fill="#fff"/><path d="M297,192c-.29-6.29-.67-11.09-1-12.09-1.35-3.15-6.41-7.2-11.42-7.87,0,0-1.88,8.68-3.73,20Z" transform="translate(-60.24 -61.19)" fill="#387ab6"/><path d="M267.82,192c2.65-11.25,4.7-17.94,4.7-17.94a11.89,11.89,0,0,0-6.08,3.21c-1,2-2.57,7.81-4.19,14.73Z" transform="translate(-60.24 -61.19)" fill="#387ab6"/><path d="M295.94,192c.19-6-.15-11.59-1.14-12.87-3.2-2.71-6.58-2.54-8.27.5-.92,1.66-2.14,7.46-3.07,12.37Z" transform="translate(-60.24 -61.19)" fill="#387ab6"/><path d="M274.89,175.5c-1,3.9-1.76,7.84-2.47,11.79" transform="translate(-60.24 -61.19)" fill="none" stroke="#87b8eb" stroke-miterlimit="10" stroke-width="0.36"/><ellipse cx="326.92" cy="133.3" rx="19.22" ry="14.99" transform="translate(-66.6 188.59) rotate(-41.45)" fill="#6787ff"/><path d="M347.34,151.54a6.34,6.34,0,0,1-5.8,4.64,3.51,3.51,0,0,1-3.49-4.64,6.35,6.35,0,0,1,5.81-4.65A3.51,3.51,0,0,1,347.34,151.54Z" transform="translate(-60.24 -61.19)" fill="#6787ff"/><path d="M322.55,141.93a1.64,1.64,0,0,1-1.33-.61l-4.38-5.85a2.24,2.24,0,0,1,.73-2.95,2.08,2.08,0,0,1,2.95,0l3.28,4.37,11.72-9.37a2.06,2.06,0,0,1,3,0,2.23,2.23,0,0,1-.74,3l-13.56,10.85A2.66,2.66,0,0,1,322.55,141.93Z" transform="translate(-60.24 -61.19)" fill="#fff"/><path d="M202.22,105h-5.56a1.9,1.9,0,0,1-1.89-2.52l1.38-5.55a3.45,3.45,0,0,1,3.16-2.52h5.55a1.9,1.9,0,0,1,1.89,2.52l-1.38,5.55A3.45,3.45,0,0,1,202.22,105Z" transform="translate(-60.24 -61.19)" fill="#bfd9ff"/><path d="M198.16,121.29h-5.55a1.91,1.91,0,0,1-1.9-2.53l1.39-5.55a3.44,3.44,0,0,1,3.15-2.52h5.55a1.9,1.9,0,0,1,1.89,2.52l-1.38,5.55A3.45,3.45,0,0,1,198.16,121.29Z" transform="translate(-60.24 -61.19)" fill="none" stroke="#a9a7e7" stroke-miterlimit="10" stroke-width="0.75"/><path d="M215.82,121.29h-5.55a1.91,1.91,0,0,1-1.89-2.53l1.38-5.55a3.45,3.45,0,0,1,3.15-2.52h5.55a1.91,1.91,0,0,1,1.9,2.52L219,118.76A3.45,3.45,0,0,1,215.82,121.29Z" transform="translate(-60.24 -61.19)" fill="#26c6da"/><path d="M233.48,121.29h-5.55a1.91,1.91,0,0,1-1.89-2.53l1.38-5.55a3.45,3.45,0,0,1,3.15-2.52h5.55a1.9,1.9,0,0,1,1.9,2.52l-1.39,5.55A3.43,3.43,0,0,1,233.48,121.29Z" transform="translate(-60.24 -61.19)" fill="#fff"/><path d="M194,137.94h-5.56a1.9,1.9,0,0,1-1.89-2.52l1.38-5.55a3.45,3.45,0,0,1,3.16-2.53h5.55a1.91,1.91,0,0,1,1.89,2.53l-1.38,5.55A3.45,3.45,0,0,1,194,137.94Z" transform="translate(-60.24 -61.19)" fill="#26c6da"/><path d="M189.57,155.73H184a1.9,1.9,0,0,1-1.89-2.52l1.38-5.55a3.45,3.45,0,0,1,3.15-2.53h5.55a1.91,1.91,0,0,1,1.9,2.53l-1.39,5.55A3.44,3.44,0,0,1,189.57,155.73Z" transform="translate(-60.24 -61.19)" fill="#fff"/><path d="M211.67,137.94h-5.55a1.91,1.91,0,0,1-1.9-2.52l1.39-5.55a3.44,3.44,0,0,1,3.15-2.53h5.55a1.91,1.91,0,0,1,1.89,2.53l-1.38,5.55A3.45,3.45,0,0,1,211.67,137.94Z" transform="translate(-60.24 -61.19)" fill="#edf4ff"/><path d="M203.93,169h-5.55a1.91,1.91,0,0,1-1.89-2.53l1.38-5.55a3.45,3.45,0,0,1,3.15-2.52h5.55a1.91,1.91,0,0,1,1.9,2.52l-1.39,5.55A3.45,3.45,0,0,1,203.93,169Z" transform="translate(-60.24 -61.19)" fill="none" stroke="#a9a7e7" stroke-miterlimit="10" stroke-width="0.75"/><path d="M370.92,147.41h-2a.69.69,0,0,1-.7-.92l.51-2a1.27,1.27,0,0,1,1.16-.93h2a.7.7,0,0,1,.7.93l-.51,2A1.26,1.26,0,0,1,370.92,147.41Z" transform="translate(-60.24 -61.19)" fill="#cae5ff"/><path d="M369.43,153.39h-2a.7.7,0,0,1-.7-.93l.51-2a1.26,1.26,0,0,1,1.16-.92h2a.69.69,0,0,1,.7.92l-.51,2A1.27,1.27,0,0,1,369.43,153.39Z" transform="translate(-60.24 -61.19)" fill="#cae5ff"/><path d="M375.92,153.39h-2a.7.7,0,0,1-.69-.93l.5-2a1.27,1.27,0,0,1,1.16-.92h2a.69.69,0,0,1,.69.92l-.5,2A1.28,1.28,0,0,1,375.92,153.39Z" transform="translate(-60.24 -61.19)" fill="#cae5ff"/><path d="M382.4,153.39h-2a.7.7,0,0,1-.69-.93l.51-2a1.25,1.25,0,0,1,1.15-.92h2a.7.7,0,0,1,.7.92l-.51,2A1.28,1.28,0,0,1,382.4,153.39Z" transform="translate(-60.24 -61.19)" fill="#cae5ff"/><path d="M367.91,159.5h-2a.7.7,0,0,1-.69-.93l.51-2a1.24,1.24,0,0,1,1.15-.93h2a.71.71,0,0,1,.7.93l-.51,2A1.27,1.27,0,0,1,367.91,159.5Z" transform="translate(-60.24 -61.19)" fill="#cae5ff"/><path d="M366.28,166h-2a.7.7,0,0,1-.69-.93l.51-2a1.24,1.24,0,0,1,1.15-.93h2a.71.71,0,0,1,.7.93l-.51,2A1.27,1.27,0,0,1,366.28,166Z" transform="translate(-60.24 -61.19)" fill="#cae5ff"/><path d="M374.39,159.5h-2a.7.7,0,0,1-.7-.93l.51-2a1.26,1.26,0,0,1,1.16-.93h2a.7.7,0,0,1,.7.93l-.51,2A1.26,1.26,0,0,1,374.39,159.5Z" transform="translate(-60.24 -61.19)" fill="#cae5ff"/><path d="M371.55,170.89h-2a.69.69,0,0,1-.7-.92l.51-2a1.27,1.27,0,0,1,1.16-.93h2a.71.71,0,0,1,.7.93l-.51,2A1.27,1.27,0,0,1,371.55,170.89Z" transform="translate(-60.24 -61.19)" fill="#cae5ff"/><path d="M370.27,224.62h-67a1.07,1.07,0,0,1-1-1.34l6.26-24a1.07,1.07,0,0,1,1-.81h67a1.08,1.08,0,0,1,1,1.35l-6.26,24A1.07,1.07,0,0,1,370.27,224.62Z" transform="translate(-60.24 -61.19)" fill="#bfd9ff" opacity="0.9"/><line x1="252.22" y1="142.39" x2="275.54" y2="142.39" fill="none" stroke="#a9c2ff" stroke-linecap="round" stroke-linejoin="round" stroke-width="1.08"/><line x1="250.43" y1="153.15" x2="273.74" y2="153.15" fill="none" stroke="#a9c2ff" stroke-linecap="round" stroke-linejoin="round" stroke-width="1.08"/><line x1="260.23" y1="149.09" x2="283.55" y2="149.09" fill="none" stroke="#a9c2ff" stroke-linecap="round" stroke-linejoin="round" stroke-width="1.08"/><line x1="251.63" y1="145.98" x2="258.62" y2="145.98" fill="none" stroke="#a9c2ff" stroke-linecap="round" stroke-linejoin="round" stroke-width="1.08"/><line x1="250.67" y1="149.09" x2="257.66" y2="149.09" fill="none" stroke="#a9c2ff" stroke-linecap="round" stroke-linejoin="round" stroke-width="1.08"/><line x1="279.24" y1="142.39" x2="287.55" y2="142.39" fill="none" stroke="#a9c2ff" stroke-linecap="round" stroke-linejoin="round" stroke-width="1.08"/><path d="M343.55,219.39H331.14a.1.1,0,0,1-.09-.12l.56-2.13a.09.09,0,0,1,.09-.07h12.41a.09.09,0,0,1,.09.12l-.56,2.13A.09.09,0,0,1,343.55,219.39Z" transform="translate(-60.24 -61.19)" fill="none" stroke="#84aee5" stroke-miterlimit="10" stroke-width="0.36"/><path d="M328.13,219.39H315.72a.09.09,0,0,1-.09-.12l.56-2.13a.08.08,0,0,1,.09-.07h12.41a.09.09,0,0,1,.09.12l-.56,2.13A.1.1,0,0,1,328.13,219.39Z" transform="translate(-60.24 -61.19)" fill="none" stroke="#84aee5" stroke-miterlimit="10" stroke-width="0.36"/><path d="M365.36,216.3c-.64-.85-3.22-1.47-3.93-2.31a2.75,2.75,0,0,1-.28-1.92,2.62,2.62,0,0,0,.59-.48,10,10,0,0,0,.7-1.23.38.38,0,0,0,.3.12c.34,0,1.63-1.76,1.29-2.17-.19-.23-.49,0-.72.19.34-.78.58-1.38.58-1.38h0c0-.1.06-.2.08-.3a2.8,2.8,0,0,0-2.78-3.72,5.08,5.08,0,0,0-4.65,3.72l-.06.3h0s-.06.6-.11,1.38c-.12-.22-.33-.42-.63-.19-.54.41-.12,2.16.21,2.17a.62.62,0,0,0,.36-.12,8.24,8.24,0,0,0,.08,1.23,1.45,1.45,0,0,0,.48.58,4.24,4.24,0,0,1-1.2,1.82c-1.13.84-4,1.46-5.08,2.31a9.78,9.78,0,0,0-2,3.42h17C365.67,219.28,365.93,217.06,365.36,216.3Z" transform="translate(-60.24 -61.19)" fill="#387ab6"/><path d="M279.43,216.05h-55c-4.82,0-7.76-3.91-6.56-8.74h0c1.21-4.82,6.09-8.73,10.92-8.73h55c4.82,0,7.76,3.91,6.56,8.73h0C289.14,212.14,284.25,216.05,279.43,216.05Z" transform="translate(-60.24 -61.19)" fill="#fff"/><path d="M230.28,209.6l-2.35,1.09c-.23.11-.41-.06-.32-.28l1-2.32a.25.25,0,0,0,0-.24l-1.28-1.64c-.12-.16,0-.42.26-.46l2.42-.34a.31.31,0,0,0,.23-.14l1.57-2.11c.15-.2.43-.2.48,0l.52,2.11a.18.18,0,0,0,.16.14l2.25.34c.21,0,.23.3,0,.46l-2.09,1.64a.35.35,0,0,0-.14.24l-.18,2.32c0,.22-.29.39-.46.28l-1.81-1.09A.27.27,0,0,0,230.28,209.6Z" transform="translate(-60.24 -61.19)" fill="#ffa402"/><path d="M241.89,209.6l-2.36,1.09c-.22.11-.41-.06-.31-.28l1-2.32a.23.23,0,0,0,0-.24l-1.27-1.64c-.12-.16,0-.42.26-.46l2.41-.34a.35.35,0,0,0,.24-.14l1.57-2.11c.15-.2.43-.2.48,0l.52,2.11a.17.17,0,0,0,.16.14l2.25.34c.21,0,.23.3,0,.46l-2.1,1.64a.38.38,0,0,0-.13.24l-.18,2.32c0,.22-.29.39-.46.28l-1.81-1.09A.27.27,0,0,0,241.89,209.6Z" transform="translate(-60.24 -61.19)" fill="#ffa402"/><path d="M253.5,209.6l-2.36,1.09c-.22.11-.41-.06-.32-.28l1-2.32a.23.23,0,0,0,0-.24l-1.28-1.64c-.12-.16,0-.42.27-.46l2.41-.34a.35.35,0,0,0,.24-.14l1.57-2.11c.15-.2.43-.2.48,0l.51,2.11a.18.18,0,0,0,.17.14l2.24.34c.21,0,.24.3,0,.46l-2.1,1.64a.31.31,0,0,0-.13.24l-.18,2.32c0,.22-.29.39-.46.28l-1.81-1.09A.27.27,0,0,0,253.5,209.6Z" transform="translate(-60.24 -61.19)" fill="#ffa402"/><path d="M265.1,209.6l-2.35,1.09c-.22.11-.41-.06-.32-.28l1-2.32a.25.25,0,0,0,0-.24l-1.28-1.64c-.12-.16,0-.42.26-.46l2.42-.34a.35.35,0,0,0,.24-.14l1.56-2.11c.15-.2.44-.2.48,0l.52,2.11a.18.18,0,0,0,.16.14l2.25.34c.21,0,.23.3,0,.46l-2.09,1.64a.35.35,0,0,0-.14.24l-.18,2.32a.33.33,0,0,1-.46.28l-1.81-1.09A.27.27,0,0,0,265.1,209.6Z" transform="translate(-60.24 -61.19)" fill="#ffa402"/><path d="M276.71,209.6l-2.36,1.09c-.22.11-.41-.06-.31-.28l1-2.32a.25.25,0,0,0,0-.24l-1.28-1.64c-.12-.16,0-.42.26-.46l2.42-.34a.33.33,0,0,0,.23-.14l1.57-2.11c.15-.2.43-.2.48,0l.52,2.11a.18.18,0,0,0,.16.14l2.25.34c.21,0,.23.3,0,.46l-2.09,1.64a.35.35,0,0,0-.14.24l-.18,2.32c0,.22-.29.39-.46.28L277,209.6A.27.27,0,0,0,276.71,209.6Z" transform="translate(-60.24 -61.19)" fill="#c2d4d9"/><ellipse cx="84.01" cy="114.81" rx="4.54" ry="6.34" fill="#202f7c"/><path d="M144.93,176.55s12.67,14,12.67,16.25-4.13,1.93-4.13,1.93" transform="translate(-60.24 -61.19)" fill="none" stroke="#202f7c" stroke-miterlimit="10" stroke-width="1.1"/><path d="M154.44,194.73a1.66,1.66,0,1,1-1.66-1.65A1.65,1.65,0,0,1,154.44,194.73Z" transform="translate(-60.24 -61.19)" fill="#202f7c"/><path d="M122.4,359.16c4.5,7.76,18.62,13.43,35.35,13.43s30.85-5.67,35.35-13.43Z" transform="translate(-60.24 -61.19)" fill="#4f57a0"/><polygon points="157.6 258.14 149.12 297.26 143.93 297.26 148.65 259.09 157.6 258.14" fill="#a9a7e7"/><path d="M97.21,252h68.4a7.54,7.54,0,0,1,7.54,7.54v1.89a0,0,0,0,1,0,0H97.21a0,0,0,0,1,0,0V252A0,0,0,0,1,97.21,252Z" fill="#7a82cc"/><path d="M95.3,354.21l-18.37-88.4a5.65,5.65,0,0,1,5.53-6.8h60.82a7.07,7.07,0,0,1,6.92,5.63l18.62,89.57" transform="translate(-60.24 -61.19)" fill="#a9a7e7"/><path d="M220.2,363.9H104.71a8.77,8.77,0,0,1-8.42-6.31l-1-3.38H220.2Z" transform="translate(-60.24 -61.19)" fill="#a9a7e7"/><rect x="93.98" y="307.16" width="9.19" height="82" fill="#e2e7ff"/><polygon points="103.17 322.36 93.98 329.78 93.98 307.16 103.17 307.16 103.17 322.36" fill="#4f57a0"/><polygon points="102.88 376.94 99.52 376.94 98.68 376.94 95.32 376.94 60.87 390.62 137.33 390.62 102.88 376.94" fill="#e2e7ff"/><line x1="24.79" y1="203.87" x2="79.45" y2="203.87" fill="none" stroke="#4f57a0" stroke-miterlimit="10"/><line x1="85.12" y1="210.2" x2="94.45" y2="257.2" fill="none" stroke="#4f57a0" stroke-miterlimit="10"/><line x1="96.12" y1="265.53" x2="98.12" y2="279.2" fill="none" stroke="#4f57a0" stroke-miterlimit="10"/><path d="M411.2,186.06h-44a3.7,3.7,0,0,1-3.65-4.28l.34-2.11a3.69,3.69,0,0,1,3.65-3.11h44a3.69,3.69,0,0,1,3.65,4.27l-.34,2.11A3.7,3.7,0,0,1,411.2,186.06Z" transform="translate(-60.24 -61.19)" fill="#cae5ff"/><line x1="308.79" y1="120.2" x2="346.79" y2="120.2" fill="none" stroke="#fff" stroke-miterlimit="10" stroke-width="2"/><path d="M250.86,131.39h-12c-5.7,0-11.31,4.62-12.52,10.33h0c-1.22,5.71,2.42,10.34,8.13,10.34h2.61a9.58,9.58,0,0,0,9.78,6,13.4,13.4,0,0,1-1.57-6h1.18c5.71,0,11.32-4.63,12.53-10.34h0C260.21,136,256.57,131.39,250.86,131.39Z" transform="translate(-60.24 -61.19)" fill="#ff634d"/><line x1="173.52" y1="78.53" x2="184.86" y2="78.53" fill="none" stroke="#fff" stroke-miterlimit="10" stroke-width="2"/><line x1="172.57" y1="83.03" x2="190.98" y2="83.03" fill="none" stroke="#fff" stroke-miterlimit="10" stroke-width="2"/></svg>