<svg id="Capa_1" data-name="Capa 1" xmlns="http://www.w3.org/2000/svg" viewBox="0 0 208.98 229.9"><path d="M201.39,281a2.71,2.71,0,0,0,3.69,1l6.41-3.67a2.71,2.71,0,0,0,1-3.69L204,259.79a2.7,2.7,0,0,0-3.69-1l-6.4,3.66a2.71,2.71,0,0,0-1,3.69Z" transform="translate(-114.4 -88.19)" fill="#841212"/><path d="M204.52,265.56l-.45-1.36,2.17-.46,6.25,10.9a2.71,2.71,0,0,1-1,3.69l-1.73,1h0L205.08,282a2.71,2.71,0,0,1-3.69-1l-.66-1.15A13.56,13.56,0,0,0,204.52,265.56Z" transform="translate(-114.4 -88.19)" fill="#590c02"/><path d="M155.08,248.78s35.84,64.71,48.33,68.39c0,0,12.65,4.57,25.91-6.63,0,0-37.8-58.48-41.73-72.13Z" transform="translate(-114.4 -88.19)" fill="#dadada"/><path d="M221.62,314.48c-5.59-8.71-36.22-56.67-43.43-74l9.11-2.91c3.93,13.65,41.72,72.13,41.72,72.13A33.7,33.7,0,0,1,221.62,314.48Z" transform="translate(-114.4 -88.19)" fill="#f6f6f6"/><path d="M196.09,230l3.37,10.23a12.17,12.17,0,0,1-7.74,15.37l-24.55,8.09A12.17,12.17,0,0,1,151.8,256l-3.37-10.23Z" transform="translate(-114.4 -88.19)" fill="#841212"/><path d="M162,255.53,191,246a14.32,14.32,0,0,0,8.1-6.75l.34,1a12.17,12.17,0,0,1-7.74,15.37l-24.55,8.09A12.17,12.17,0,0,1,151.8,256l-.34-1A14.29,14.29,0,0,0,162,255.53Z" transform="translate(-114.4 -88.19)" fill="#590c02"/><path d="M135.7,190l20.52,62.28A32.81,32.81,0,0,1,135.7,190Z" transform="translate(-114.4 -88.19)" fill="#891314"/><rect x="145.25" y="183.87" width="28.15" height="65.62" transform="translate(-174.19 -27.46) rotate(-18.23)" fill="#be1622"/><path d="M266.82,88.24c-.55,10.66,7.93,45.55,21.28,86.05s27.22,73.53,34,81.82C303.82,244.8,247,222.36,183,243.46l-20.54-62.35C226.52,160,258.84,108.18,266.82,88.24Z" transform="translate(-114.4 -88.19)" fill="#dadada"/><path d="M286,175c15.27,46.36,31.43,82.69,36.09,81.16s-3.93-40.36-19.2-86.72S271.48,86.7,266.82,88.24C265.8,88.57,270.75,128.6,286,175Z" transform="translate(-114.4 -88.19)" fill="#590c02"/><path d="M114.76,225.38s0,0,0,0c-.11-.8-.19-1.59-.24-2.39,0-.18,0-.36,0-.55,0-.75,0-1.5,0-2.25,0-.22,0-.43,0-.65,0-.73.08-1.46.15-2.18l.09-.68c.09-.72.19-1.42.33-2.13,0-.22.1-.44.14-.66.16-.7.33-1.41.52-2.11,0-.17.11-.34.17-.52a33.66,33.66,0,0,1,2.78-6.51c.12-.2.22-.41.33-.61.29-.47.6-.92.9-1.39s.46-.72.72-1.07.59-.79.9-1.18.6-.77.92-1.14.63-.7,1-1,.72-.76,1.1-1.12.65-.62,1-.92.85-.73,1.28-1.08l1-.8c.48-.35,1-.69,1.48-1,.33-.22.66-.45,1-.66.58-.35,1.18-.67,1.79-1,.28-.16.57-.33.87-.47.92-.46,1.86-.88,2.83-1.25l5.58,16.93-7.83,2.58v.05A36.84,36.84,0,0,0,114.76,225.38Z" transform="translate(-114.4 -88.19)" fill="#be1622"/><path d="M168,198q-2.35.85-4.76,1.65l-22,7.23-5.59-17,26.74-8.8h0Z" transform="translate(-114.4 -88.19)" fill="#cd1626"/><path d="M162.43,181.11h0q2.72-.9,5.35-1.87l1.62-.61c1.25-.47,2.49-.95,3.71-1.45l1.67-.68c1.35-.56,2.68-1.13,4-1.72l1.05-.46c1.63-.74,3.25-1.51,4.83-2.29.42-.2.84-.42,1.25-.63,1.19-.59,2.36-1.2,3.51-1.81.52-.27,1-.55,1.54-.83,1.11-.6,2.21-1.21,3.29-1.84.44-.24.87-.48,1.3-.74,1.46-.85,2.91-1.72,4.33-2.6l.71-.46c1.18-.74,2.36-1.5,3.52-2.27l1.38-.93c.94-.64,1.88-1.29,2.8-1.94l1.35-.95c1.08-.79,2.16-1.58,3.21-2.37l.68-.51c1.24-.94,2.45-1.9,3.65-2.86l1.24-1c.8-.65,1.59-1.31,2.38-2l1.35-1.15c.77-.67,1.52-1.33,2.26-2l1.18-1c1-1,2.07-1.91,3.08-2.86l1.19-1.16c.64-.62,1.28-1.24,1.91-1.87.46-.46.92-.92,1.37-1.39s1.08-1.1,1.61-1.66.92-.95,1.36-1.43,1.09-1.17,1.63-1.76c.76-.83,1.5-1.66,2.23-2.48l1.26-1.45c.5-.57,1-1.13,1.46-1.7.33-.41.67-.81,1-1.21.5-.6,1-1.19,1.46-1.78l.77-1q2.63-3.3,4.93-6.49l.38-.52c.52-.72,1-1.43,1.51-2.14l.25-.35a131.93,131.93,0,0,0,13.82-24.66h0c-.24,4.53,1.17,13.45,3.88,25.3-.5.83-1,1.66-1.54,2.52-16.24,26.08-48.79,63.19-101.16,82Z" transform="translate(-114.4 -88.19)" fill="#f6f6f6"/><path d="M313.7,168.67l0,0c0-.12-.09-.24-.13-.37C313.6,168.41,313.65,168.54,313.7,168.67Z" transform="translate(-114.4 -88.19)" fill="#005087"/><path d="M281,152.64A27.62,27.62,0,0,1,298.22,205Z" transform="translate(-114.4 -88.19)" fill="#b2b2b2"/><path d="M152.51,253c-.74.12-1.48.21-2.22.28l-.84.07c-.76,0-1.52.07-2.28.06-.22,0-.44,0-.66,0a32.34,32.34,0,0,1-5.75-.64l-.76-.17c-.67-.16-1.34-.33-2-.52l-.9-.28c-.63-.2-1.25-.43-1.87-.67l-.82-.32c-.83-.35-1.66-.74-2.46-1.16l-.66-.37c-.58-.33-1.16-.66-1.73-1-.34-.22-.67-.45-1-.68s-.86-.6-1.28-.91l-1-.8c-.39-.33-.77-.67-1.15-1s-.64-.56-.94-.86q-.87-.85-1.68-1.77c-.29-.33-.57-.69-.85-1s-.53-.67-.78-1A41.48,41.48,0,0,0,137.23,239l13.2-4.35,5.79,17.57c-1,.27-2,.49-2.95.67C153,253,152.77,253,152.51,253Z" transform="translate(-114.4 -88.19)" fill="#620e05"/><path d="M170.63,228v0c2.21-.72,4.4-1.4,6.59-2L183,243.44h0l-26.72,8.81-5.79-17.57Z" transform="translate(-114.4 -88.19)" fill="#9d1519"/><path d="M307.82,227.89c5.88,14,10.95,24.13,14.29,28.21h0c-9.43-5.83-29.13-14.61-54.77-18.86l-.4-.07c-1.1-.18-2.22-.35-3.34-.51l-.48-.07c-3.28-.47-6.65-.85-10.1-1.16l-1.33-.11-2.86-.2-1.67-.09-2.8-.14-1.87,0c-1.52-.05-3.05-.07-4.6-.07-.77,0-1.55,0-2.33,0l-2.45,0-2.47.08-2.39.1-2.95.19-2.13.15c-1.5.12-3,.26-4.53.43l-2,.24c-1,.12-2.08.25-3.13.4l-2.13.31-3.37.54-1.83.31c-1.68.31-3.37.64-5.07,1l-1.43.32c-1.3.28-2.6.59-3.92.91l-1.9.48c-1.23.32-2.46.66-3.7,1-.58.16-1.17.32-1.75.5q-2.66.76-5.32,1.64l-.08,0L177.23,226C228.49,210.91,275.49,217.64,307.82,227.89Z" transform="translate(-114.4 -88.19)" fill="#c6c6c6"/><path d="M266.82,88.24c-.55,10.66,7.93,45.55,21.28,86.05s27.22,73.53,34,81.82A118,118,0,0,0,304,247.3a339.56,339.56,0,0,1-46.5-141.19A119.6,119.6,0,0,0,266.82,88.24Z" transform="translate(-114.4 -88.19)" fill="#be1622"/><path d="M257.47,106.11a119.6,119.6,0,0,0,9.35-17.87h0c-.24,4.53,1.17,13.45,3.88,25.3-.5.83-1,1.66-1.54,2.52-2.5,4-5.39,8.28-8.67,12.71C259.24,121.26,258.21,113.71,257.47,106.11Z" transform="translate(-114.4 -88.19)" fill="#d14240"/><path d="M322.11,256.1A119.23,119.23,0,0,0,304,247.29q-7-11.78-13.09-24c6,1.41,11.67,3,16.94,4.65,5.87,14,10.95,24.13,14.28,28.21Z" transform="translate(-114.4 -88.19)" fill="#891314"/><path d="M297.71,175.05c2.22,6.76,7.15,11.21,11,9.94s5.17-7.77,2.94-14.53-7.15-11.2-11-9.94S295.48,168.3,297.71,175.05Z" transform="translate(-114.4 -88.19)" fill="#ededed"/></svg>