<svg xmlns="http://www.w3.org/2000/svg" viewBox="0 0 108.62 108.62"><g style="isolation:isolate"><g id="sign"><path d="M281.09,196.27A54.31,54.31,0,1,1,226.79,142,54.31,54.31,0,0,1,281.09,196.27Z" transform="translate(-172.47 -141.96)" fill="#9bd470"/><path d="M195.2,181.52v39.27a2.33,2.33,0,0,0,2.41,2.23h64a2.33,2.33,0,0,0,2.41-2.23V181.52l-6.79.06-27.6,21.49-26.25-21.55Z" transform="translate(-172.47 -141.96)" fill="#d3eef3"/><path d="M257.21,181.58l-27.59,21.49-26.25-21.55h-8.16v39.27a2.33,2.33,0,0,0,2.41,2.23h64a2.33,2.33,0,0,0,2.41-2.23V181.52Zm5.4,38.48a2.23,2.23,0,0,1-2.31,2.14H198.87a2.23,2.23,0,0,1-2.31-2.14V182.37h6l27.05,22.32,28-22.28,5,0Z" transform="translate(-172.47 -141.96)" fill="#e5f9fe"/><path d="M195.29,181.62s27.82,31.65,34.21,31.65c5.73,0,34.37-31.62,34.37-31.62a5,5,0,0,1-2.31.7H197.27A4.35,4.35,0,0,1,195.29,181.62Z" transform="translate(-172.47 -141.96)" fill="#95aeb2"/><polygon points="63.97 55.79 65.64 54.49 88.69 77.24 61.4 57.15 63.97 55.79" fill="#95aeb2"/><polygon points="50.65 55.76 48.62 54.12 25.8 77.71 52.85 57.15 50.65 55.76" fill="#95aeb2"/><path d="M195.76,222.2S223.22,194,229.6,194c5.74,0,33.85,28.21,33.85,28.21a2.53,2.53,0,0,1-1.86.82H197.3A2.19,2.19,0,0,1,195.76,222.2Z" transform="translate(-172.47 -141.96)" fill="#d3eef3"/><path d="M261.9,220.68a2.33,2.33,0,0,1-1.09.28H198.1a1.6,1.6,0,0,1-.83-.26l-1.5,1.53a2.16,2.16,0,0,0,1.53.81h64.3a2.54,2.54,0,0,0,1.86-.81Z" transform="translate(-172.47 -141.96)" fill="#e5f9fe"/><path d="M263.37,222.28s-28.12-28.21-33.85-28.21c-6.39,0-33.84,28.21-33.84,28.21s27.45-27.52,33.84-27.52C235.25,194.76,263.37,222.28,263.37,222.28Z" transform="translate(-172.47 -141.96)" fill="#e5f9fe"/><path d="M195.2,181.52s28.07,29.07,34.45,29.07c5.73,0,34.35-29.07,34.35-29.07s-1.17,0-2.36,0H197.35C196.44,181.57,195.2,181.52,195.2,181.52Z" transform="translate(-172.47 -141.96)" fill="#d3eef3"/><path d="M264,181.52s-1.18,0-2.37,0h-64.3c-.91,0-2.14,0-2.14,0s0,0,1.38,1.41l66,0S264,181.52,264,181.52Z" transform="translate(-172.47 -141.96)" fill="#e5f9fe"/><path d="M263.42,182.11s-28.12,28.4-33.86,28.4c-6.38,0-34.17-28.79-34.17-28.79s27.84,26.79,34.22,26.79C235.35,208.51,263.42,182.11,263.42,182.11Z" transform="translate(-172.47 -141.96)" fill="#e5f9fe"/><path d="M209.57,195.75c7.55,7.61,16.32,15.64,19.67,15.64,2.48,0,9.21-5.18,15.44-11.34-6.44,5.71-13.11,10.28-15.44,10.28C226,210.33,217.4,203,209.57,195.75Z" transform="translate(-172.47 -141.96)" fill="#abb1b2"/><path d="M261.41,206.53l-5.86-25H203.41l0,0h-7.16l-1,.24v39a2.14,2.14,0,0,0,.56,1.41l-.08.08.08-.08h0l0,0h0a2.16,2.16,0,0,0,1.53.81h3.59l58.69-13.77a2.58,2.58,0,0,0,1.63-1.22h0A2.06,2.06,0,0,0,261.41,206.53Z" transform="translate(-172.47 -141.96)" fill="#eef5f9" style="mix-blend-mode:multiply"/><path d="M182.93,181.48l9,38.23a2.32,2.32,0,0,0,2.85,1.62L257,206.71a2.32,2.32,0,0,0,1.83-2.71l-9-38.23-6.6,1.6-22,27.23-30.47-15Z" transform="translate(-172.47 -141.96)" fill="#d3eef3"/><path d="M243.31,167.37l-22,27.23-30.47-15-7.95,1.86,9,38.23a2.32,2.32,0,0,0,2.85,1.62l62.3-14.62a2.32,2.32,0,0,0,1.83-2.71l-9-38.24Zm14,36.24a2.22,2.22,0,0,1-1.76,2.6l-59.8,14a2.22,2.22,0,0,1-2.74-1.55L184.44,182l5.84-1.37,31.43,15.55,22.2-28.09,4.83-1.18Z" transform="translate(-172.47 -141.96)" fill="#e5f9fe"/><path d="M183,181.55s34.32,24.46,40.53,23c5.58-1.31,26.24-38.63,26.24-38.63a5,5,0,0,1-2.08,1.21l-62.6,14.69A4.4,4.4,0,0,1,183,181.55Z" transform="translate(-172.47 -141.96)" fill="#95aeb2"/><polygon points="54.31 45.89 55.64 44.25 83.27 61.13 52.12 47.81 54.31 45.89" fill="#95aeb2"/><polygon points="41.34 48.91 38.98 47.77 22.15 75.96 43.8 49.76 41.34 48.91" fill="#95aeb2"/><path d="M192.76,221s20.29-33.74,26.5-35.19c5.59-1.31,39.4,19.73,39.4,19.73a2.51,2.51,0,0,1-1.62,1.21L194.45,221.4A2.19,2.19,0,0,1,192.76,221Z" transform="translate(-172.47 -141.96)" fill="#d3eef3"/><path d="M256.8,204.37a2.32,2.32,0,0,1-1,.51l-61.05,14.33a1.58,1.58,0,0,1-.87-.06c-.71,1.15-1.11,1.83-1.11,1.83a2.16,2.16,0,0,0,1.68.44l62.59-14.69a2.51,2.51,0,0,0,1.62-1.21Z" transform="translate(-172.47 -141.96)" fill="#e5f9fe"/><path d="M258.6,205.59s-33.82-21-39.4-19.73c-6.22,1.46-26.5,35.19-26.5,35.19s20.44-33.06,26.65-34.52C224.93,185.22,258.6,205.59,258.6,205.59Z" transform="translate(-172.47 -141.96)" fill="#e5f9fe"/><path d="M182.93,181.48s34,21.89,40.17,20.43c5.58-1.31,26.8-36.14,26.8-36.14s-1.12.31-2.28.58L185,181C184.14,181.24,182.93,181.48,182.93,181.48Z" transform="translate(-172.47 -141.96)" fill="#d3eef3"/><path d="M249.9,165.77l-2.3.57L185,181c-.88.21-2.09.45-2.09.45l1.66,1.06,64.27-15.11S249.9,165.77,249.9,165.77Z" transform="translate(-172.47 -141.96)" fill="#e5f9fe"/><path d="M249.47,166.47S228.58,200.55,223,201.86c-6.21,1.45-39.85-20.23-39.85-20.23s33.23,19.72,39.44,18.26C228.17,198.58,249.47,166.47,249.47,166.47Z" transform="translate(-172.47 -141.96)" fill="#e5f9fe"/><path d="M200.16,192.05c9.09,5.68,19.46,11.5,22.73,10.73,2.41-.56,7.78-7.15,12.44-14.56-5,7-10.41,13-12.68,13.53C219.53,202.49,209.45,197.35,200.16,192.05Z" transform="translate(-172.47 -141.96)" fill="#abb1b2"/></g></g></svg>