<svg id="Layer_1" data-name="Layer 1" xmlns="http://www.w3.org/2000/svg" viewBox="0 0 871.01 1187.55"><rect x="0.02" y="0.02" width="870.96" height="1187.51" fill="#fff8f3"/><path d="M1082,1536.06H958.19V1412.24H1082ZM963.25,1531h113.69V1417.31H963.25Z" transform="translate(-311.51 -1185.89)" fill="#016589"/><path d="M1082,1742.07H958.18V1618.25H1082ZM963.24,1737h113.69V1623.32H963.25Z" transform="translate(-311.51 -1185.89)" fill="#016589"/><path d="M1082,1948.09H958.17V1824.27H1082ZM963.23,1943h113.69V1829.34H963.24Z" transform="translate(-311.51 -1185.89)" fill="#016589"/><path d="M1082,2154.1H958.16V2030.29H1082ZM963.22,2149h113.7V2035.35H963.23Z" transform="translate(-311.51 -1185.89)" fill="#016589"/><rect x="64.93" y="228.86" width="529.88" height="17.82" fill="#65b3c6"/><rect x="64.93" y="279.33" width="529.88" height="17.82" fill="#65b3c6"/><rect x="64.93" y="329.8" width="529.88" height="17.82" fill="#65b3c6"/><rect x="64.92" y="441.92" width="529.88" height="17.82" fill="#65b3c6"/><rect x="64.92" y="492.38" width="529.88" height="17.82" fill="#65b3c6"/><rect x="64.92" y="542.85" width="529.88" height="17.82" fill="#65b3c6"/><rect x="64.92" y="643.78" width="529.88" height="17.82" fill="#65b3c6"/><rect x="64.91" y="694.24" width="529.88" height="17.82" fill="#65b3c6"/><rect x="64.91" y="744.71" width="529.88" height="17.82" fill="#65b3c6"/><rect x="64.91" y="845.64" width="529.88" height="17.82" fill="#65b3c6"/><rect x="64.91" y="896.11" width="529.88" height="17.82" fill="#65b3c6"/><rect x="64.9" y="946.57" width="529.88" height="17.82" fill="#65b3c6"/><rect x="64.9" y="1077.05" width="611.3" height="17.82" fill="#65b3c6"/><rect x="64.9" y="1120.23" width="731.85" height="17.82" fill="#65b3c6"/><polygon points="708.01 329.81 669.68 263.77 683.46 255.78 705.7 294.11 742.3 206.77 756.99 212.93 708.01 329.81" fill="#ff7768"/><polygon points="708 538.53 669.67 472.49 683.45 464.5 705.7 502.82 742.29 415.49 756.98 421.64 708 538.53" fill="#ff7768"/><polygon points="707.99 946.59 669.66 880.55 683.43 872.56 705.68 910.89 742.27 823.55 756.96 829.7 707.99 946.59" fill="#ff7768"/><polygon points="707.52 737 669.19 670.97 682.96 662.97 705.21 701.3 741.81 613.97 756.5 620.12 707.52 737" fill="#ff7768"/><path d="M556.88,1288.42a105.54,105.54,0,0,1,19.23-1.65c10.71,0,17.62,1.92,22.46,6.28,3.92,3.45,6.12,8.74,6.14,14.73,0,10.24-6.41,17-14.58,19.83v.35c6,2,9.57,7.57,11.43,15.63,2.56,10.81,4.42,18.29,6,21.28l-10.36,0c-1.28-2.19-3-8.86-5.23-18.53-2.32-10.7-6.48-14.72-15.57-15l-9.44,0,.07,33.61-10,0Zm10.1,35.33,10.25,0c10.7,0,17.48-5.91,17.46-14.77,0-10-7.28-14.38-17.87-14.47a41.41,41.41,0,0,0-9.9.94Z" transform="translate(-311.51 -1185.89)" fill="#016589"/><path d="M659.1,1328.38l-30.16.06.06,28,33.61-.07,0,8.4-43.63.1-.17-77.6,41.9-.09,0,8.4-31.89.07.06,24.53,30.16-.07Z" transform="translate(-311.51 -1185.89)" fill="#016589"/><path d="M674.24,1352.52a35.55,35.55,0,0,0,18,5c10.24,0,16.22-5.45,16.2-13.28,0-7.25-4.17-11.39-14.65-15.39-12.68-4.47-20.52-11-20.55-22,0-12.09,10-21.09,25.06-21.12,7.94,0,13.7,1.81,17.16,3.76l-2.75,8.18a30.77,30.77,0,0,0-14.74-3.65c-10.59,0-14.61,6.36-14.6,11.66,0,7.25,4.75,10.81,15.46,14.93,13.14,5,19.83,11.35,19.86,22.75,0,12-8.82,22.36-27.13,22.4-7.48,0-15.66-2.16-19.81-4.91Z" transform="translate(-311.51 -1185.89)" fill="#016589"/><path d="M742.25,1287l.1,45.93c0,17.39,7.77,24.74,18.13,24.72,11.51,0,18.87-7.64,18.83-24.8l-.11-45.94,10.14,0,.1,45.25c0,23.83-12.48,33.64-29.29,33.68-15.88,0-27.88-9-27.93-33.09l-.1-45.71Z" transform="translate(-311.51 -1185.89)" fill="#016589"/><path d="M872.21,1330.21c-.59-10.82-1.31-23.83-1.22-33.5h-.35c-2.62,9.1-5.83,18.78-9.72,29.49l-13.61,37.68-7.6,0L827.08,1327c-3.71-10.93-6.84-20.94-9.05-30.15h-.23c-.21,9.68-.76,22.69-1.42,34.32l-2,33.27-9.56,0,5.24-77.6,12.78,0,13.33,37.5c3.24,9.55,5.91,18.06,7.88,26.12h.35c1.94-7.84,4.68-16.36,8.11-26.16l13.74-37.56,12.78,0,5,77.59-9.78,0Z" transform="translate(-311.51 -1185.89)" fill="#016589"/><path d="M939.56,1327.75l-30.16.07.06,28,33.62-.08,0,8.41-43.64.09-.17-77.59,41.91-.1,0,8.41-31.89.07,0,24.52,30.17-.06Z" transform="translate(-311.51 -1185.89)" fill="#016589"/></svg>