<svg xmlns="http://www.w3.org/2000/svg" xmlns:xlink="http://www.w3.org/1999/xlink" viewBox="0 0 359.82 319.03"><defs><linearGradient id="Degradado_sin_nombre_129" x1="69.85" y1="426.9" x2="173.08" y2="329.66" gradientUnits="userSpaceOnUse"><stop offset="0" stop-color="#ff8533"/><stop offset="1" stop-color="#ffd052"/></linearGradient><linearGradient id="Degradado_sin_nombre_144" x1="117.03" y1="382.84" x2="180.66" y2="320.24" gradientUnits="userSpaceOnUse"><stop offset="0" stop-color="#ffd052"/><stop offset="1" stop-color="#ffe9ae"/></linearGradient><linearGradient id="Degradado_sin_nombre_106" x1="143.01" y1="260.84" x2="83.44" y2="163.46" gradientUnits="userSpaceOnUse"><stop offset="0" stop-color="#767b7f"/><stop offset="1" stop-color="#a3a3a3"/></linearGradient><linearGradient id="Degradado_sin_nombre_92" x1="147" y1="246.46" x2="242.46" y2="355.56" gradientUnits="userSpaceOnUse"><stop offset="0" stop-color="#f02e54"/><stop offset="1" stop-color="#8f1931"/></linearGradient><linearGradient id="Degradado_sin_nombre_92-2" x1="248.04" y1="381.87" x2="217.36" y2="227.27" xlink:href="#Degradado_sin_nombre_92"/><linearGradient id="Degradado_sin_nombre_36" x1="276.04" y1="151.46" x2="346.66" y2="318.25" gradientUnits="userSpaceOnUse"><stop offset="0" stop-color="#eef4fa"/><stop offset="1" stop-color="#cddeed"/></linearGradient><linearGradient id="Degradado_sin_nombre_36-2" x1="285.68" y1="169.95" x2="345.59" y2="311.45" xlink:href="#Degradado_sin_nombre_36"/><linearGradient id="Degradado_sin_nombre_13" x1="173.01" y1="238.2" x2="236.75" y2="316.85" gradientUnits="userSpaceOnUse"><stop offset="0" stop-color="#c7c7c7"/><stop offset="1" stop-color="#a3a3a3"/></linearGradient><linearGradient id="Degradado_sin_nombre_126" x1="126.52" y1="186.24" x2="139.57" y2="226.46" gradientUnits="userSpaceOnUse"><stop offset="0" stop-color="#1d262d"/><stop offset="1" stop-color="#1d262d" stop-opacity="0"/></linearGradient><linearGradient id="Degradado_sin_nombre_92-3" x1="360.39" y1="107.81" x2="492.19" y2="213.52" xlink:href="#Degradado_sin_nombre_92"/><clipPath id="clip-path" transform="translate(-92.85 -90.49)"><path d="M404.69,145.8c6.41-41.53-1.76-51.3-1.76-51.3s-9.86-8.07-51.43-1.33c-43.91,7.12-71.77,34.12-90.75,52.89-24.56,24.28-65.05,80.15-84.19,127.72L201,297.69l24.17,24.17c47.51-19.49,103.16-60.37,127.29-85.07C371.1,217.7,397.93,189.67,404.69,145.8Z" fill="none"/></clipPath><linearGradient id="Degradado_sin_nombre_159" x1="528.68" y1="336.91" x2="284.68" y2="83.91" gradientTransform="translate(212.22 -204.04) rotate(45.59)" gradientUnits="userSpaceOnUse"><stop offset="0" stop-color="#8f1931"/><stop offset="1" stop-color="#f02e54"/></linearGradient><linearGradient id="Degradado_sin_nombre_159-2" x1="521.26" y1="344.07" x2="277.27" y2="91.07" gradientTransform="translate(216.12 -196.99) rotate(45.59)" xlink:href="#Degradado_sin_nombre_159"/><linearGradient id="Degradado_sin_nombre_92-4" x1="171.3" y1="278.15" x2="246.03" y2="385.04" xlink:href="#Degradado_sin_nombre_92"/><linearGradient id="Degradado_sin_nombre_153" x1="300.98" y1="223.31" x2="327.97" y2="279.8" gradientTransform="translate(457.54 -111.73) rotate(82.28)" gradientUnits="userSpaceOnUse"><stop offset="0" stop-color="#1d262d"/><stop offset="0.68" stop-color="#1d262d" stop-opacity="0.32"/><stop offset="1" stop-color="#1d262d" stop-opacity="0"/></linearGradient><linearGradient id="Degradado_sin_nombre_13-2" x1="273.29" y1="159.33" x2="326.29" y2="283.31" gradientTransform="translate(0.66 -0.94) rotate(0.18)" xlink:href="#Degradado_sin_nombre_13"/><linearGradient id="Degradado_sin_nombre_6" x1="266.98" y1="166.52" x2="329.62" y2="262.24" gradientTransform="translate(1.01 -1.43) rotate(0.28)" gradientUnits="userSpaceOnUse"><stop offset="0" stop-color="#ade5ff"/><stop offset="1" stop-color="#76c9f0"/></linearGradient><clipPath id="clip-path-2" transform="translate(-92.85 -90.49)"><circle cx="292.39" cy="205.35" r="31.73" transform="translate(-1 1.44) rotate(-0.28)" fill="none"/></clipPath><linearGradient id="Degradado_sin_nombre_158" x1="322.99" y1="178.97" x2="256.03" y2="223.31" gradientTransform="translate(106.03 -99.57) rotate(23.83)" gradientUnits="userSpaceOnUse"><stop offset="0" stop-color="#f9fbfc"/><stop offset="1" stop-color="#f9fbfc" stop-opacity="0"/></linearGradient><linearGradient id="Degradado_sin_nombre_158-2" x1="331.57" y1="191.93" x2="264.61" y2="236.27" gradientTransform="translate(112.51 -100.64) rotate(23.83)" xlink:href="#Degradado_sin_nombre_158"/><clipPath id="clip-path-3" transform="translate(-92.85 -90.49)"><path d="M404.69,145.8c6.41-41.53-1.76-51.3-1.76-51.3s-9.86-8.07-51.43-1.33c-43.91,7.12-71.77,34.12-90.75,52.89-19.59,19.37-49.33,58.86-70.27,98.18a308.25,308.25,0,0,0-13.92,29.54L201,297.69l24.17,24.17c47.51-19.49,103.16-60.37,127.29-85.07C371.1,217.7,397.93,189.67,404.69,145.8Z" fill="none"/></clipPath><linearGradient id="Degradado_sin_nombre_126-2" x1="452.41" y1="295.32" x2="308" y2="205.14" xlink:href="#Degradado_sin_nombre_126"/><linearGradient id="Degradado_sin_nombre_126-3" x1="245.78" y1="289.81" x2="260.73" y2="323.3" xlink:href="#Degradado_sin_nombre_126"/></defs><g style="isolation:isolate"><g id="OBJECTS"><path d="M174.23,325.57s-60.82-22.82-73.83,36.36l12.85-2.56s-15.06,17.31-20.4,50.14c32.66-6.35,49.49-21.94,49.49-21.94l-2.16,12.92C198.92,385.64,174.23,325.57,174.23,325.57Z" transform="translate(-92.85 -90.49)" fill="url(#Degradado_sin_nombre_129)"/><path d="M174.23,325.57s-37.94-14.24-46,22.68l8-1.6s-9.39,10.8-12.72,31.28c20.37-4,30.87-13.69,30.87-13.69L153,372.3C189.63,363,174.23,325.57,174.23,325.57Z" transform="translate(-92.85 -90.49)" fill="url(#Degradado_sin_nombre_144)"/><polygon points="124.36 232.06 82.86 191 94.29 179.5 135.79 220.56 124.36 232.06" fill="url(#Degradado_sin_nombre_106)"/><path d="M207.21,215.49s-38.55-2.85-54.36,13c-17.06,17.16-31.19,38.16-42.6,68.17-6.09,16,10-.54,20.65-10.29,18.67-17.06,27.88-16.72,45.66-12.65C176.56,273.77,186.14,254.16,207.21,215.49Z" transform="translate(-92.85 -90.49)" fill="url(#Degradado_sin_nombre_92)"/><path d="M207.21,215.49s-38.55-2.85-54.36,13c-17.06,17.16-31.19,38.16-42.6,68.17-1.15,3-1.51,4.86-1.27,5.84,0,0,16.4-38,34.37-56.63s30-25.55,63.86-30.43" transform="translate(-92.85 -90.49)" fill="#fff" opacity="0.33" style="mix-blend-mode:soft-light"/><path d="M283.32,290.8s3.18,38.43-12.63,54.34c-17.05,17.16-38,31.44-68,43.08-16,6.21.46-10,10.14-20.7,16.95-18.77,16.52-27.95,12.29-45.66C225.16,321.86,244.74,312.14,283.32,290.8Z" transform="translate(-92.85 -90.49)" fill="url(#Degradado_sin_nombre_92-2)"/><path d="M404.69,145.8c6.41-41.53-1.76-51.3-1.76-51.3s-9.86-8.07-51.43-1.33c-43.91,7.12-71.77,34.12-90.75,52.89-24.56,24.28-65.05,80.15-84.19,127.72L201,297.69l24.17,24.17c47.51-19.49,103.16-60.37,127.29-85.07C371.1,217.7,397.93,189.67,404.69,145.8Z" transform="translate(-92.85 -90.49)" fill="url(#Degradado_sin_nombre_36)"/><path d="M182.75,279.84,201,297.69l24.17,24.17c47.51-19.49,103.16-60.37,127.29-85.07,18.65-19.09,45.48-47.12,52.24-91,6.41-41.53-1.76-51.3-1.76-51.3" transform="translate(-92.85 -90.49)" fill="url(#Degradado_sin_nombre_36-2)"/><line x1="87.16" y1="186.67" x2="128.75" y2="227.83" fill="none" stroke="#000" stroke-miterlimit="10" stroke-width="1.89" opacity="0.09" style="mix-blend-mode:soft-light"/><path d="M176.56,273.78,201,297.69l24.17,24.17a309.58,309.58,0,0,0,29.48-14.14l-64.16-63.47A309.4,309.4,0,0,0,176.56,273.78Z" transform="translate(-92.85 -90.49)" fill="url(#Degradado_sin_nombre_13)"/><polygon points="148.85 168.86 132.31 231.38 127.59 228.28 124.36 232.06 108.24 216.12 148.85 168.86" fill="url(#Degradado_sin_nombre_126)" style="mix-blend-mode:soft-light"/><line x1="222.57" y1="14.05" x2="300.76" y2="91.41" fill="none" stroke="#000" stroke-miterlimit="10" stroke-width="1.89" style="mix-blend-mode:soft-light"/><path d="M402.93,94.5s-9.86-8.07-51.43-1.33a131.93,131.93,0,0,0-36.08,11.36l78.19,77.37a130.57,130.57,0,0,0,11.08-36.1C411.1,104.27,402.93,94.5,402.93,94.5Z" transform="translate(-92.85 -90.49)" fill="url(#Degradado_sin_nombre_92-3)"/><g clip-path="url(#clip-path)"><rect x="346.02" y="84.57" width="5.68" height="131.77" transform="translate(-95.59 203.9) rotate(-45.59)" fill="url(#Degradado_sin_nombre_159)"/><rect x="340.52" y="92.73" width="3.78" height="131.77" transform="translate(-103.36 201.75) rotate(-45.59)" fill="url(#Degradado_sin_nombre_159-2)"/></g><line x1="97.62" y1="153.76" x2="161.78" y2="217.24" fill="none" stroke="#000" stroke-miterlimit="10" stroke-width="1.89" opacity="0.09" style="mix-blend-mode:soft-light"/><path d="M241.38,257.05s-3.59-5.54-38.21,29.29-64.14,68.2-61.39,70.92,35.95-27,70.56-61.85S241.38,257.05,241.38,257.05Z" transform="translate(-92.85 -90.49)" fill="url(#Degradado_sin_nombre_92-4)"/><path d="M241.38,257.05s-3.59-5.54-38.21,29.29-64.14,68.2-61.39,70.92c0,0,9.68-13.9,35.66-41.57S233.21,257.78,241.38,257.05Z" transform="translate(-92.85 -90.49)" fill="#fff" opacity="0.33" style="mix-blend-mode:soft-light"/><circle cx="292.72" cy="206" r="43.08" transform="translate(-43.58 377.91) rotate(-82.28)" fill="url(#Degradado_sin_nombre_153)" style="mix-blend-mode:soft-light"/><circle cx="292.39" cy="204.71" r="42.84" transform="translate(-93.48 -89.59) rotate(-0.17)" fill="#d4d4d4"/><circle cx="292.92" cy="205.23" r="42.32" transform="translate(-93.51 -89.55) rotate(-0.18)" fill="url(#Degradado_sin_nombre_13-2)"/><circle cx="292.15" cy="204.71" r="33.07" transform="translate(-94.05 -88.77) rotate(-0.34)" fill="#76c9f0"/><circle cx="292.39" cy="205.35" r="31.73" transform="translate(-93.86 -89.05) rotate(-0.28)" fill="url(#Degradado_sin_nombre_6)"/><g clip-path="url(#clip-path-2)"><rect x="250.54" y="195.25" width="76.88" height="12.48" transform="translate(-149.62 43.44) rotate(-23.83)" fill="url(#Degradado_sin_nombre_158)"/><rect x="256.3" y="213.18" width="76.88" height="6.28" transform="translate(-155.12 47.03) rotate(-23.83)" fill="url(#Degradado_sin_nombre_158-2)"/></g><path d="M265.37,180.88a1.81,1.81,0,1,0-2.14,1.39A1.8,1.8,0,0,0,265.37,180.88Z" transform="translate(-92.85 -90.49)" fill="#a3a3a3"/><path d="M259.09,190.77a1.81,1.81,0,1,0-2.14,1.4A1.8,1.8,0,0,0,259.09,190.77Z" transform="translate(-92.85 -90.49)" fill="#a3a3a3"/><path d="M272.49,174a1.81,1.81,0,1,0-2.14,1.4A1.81,1.81,0,0,0,272.49,174Z" transform="translate(-92.85 -90.49)" fill="#a3a3a3"/><path d="M257.47,212.21a1.81,1.81,0,1,0-.23,2.54A1.8,1.8,0,0,0,257.47,212.21Z" transform="translate(-92.85 -90.49)" fill="#a3a3a3"/><path d="M261.33,223.27a1.81,1.81,0,1,0-.23,2.55A1.8,1.8,0,0,0,261.33,223.27Z" transform="translate(-92.85 -90.49)" fill="#a3a3a3"/><path d="M256.74,200.63a1.81,1.81,0,1,0-.24,2.54A1.81,1.81,0,0,0,256.74,200.63Z" transform="translate(-92.85 -90.49)" fill="#a3a3a3"/><path d="M276.45,237.93a1.81,1.81,0,1,0,1.86,1.75A1.81,1.81,0,0,0,276.45,237.93Z" transform="translate(-92.85 -90.49)" fill="#a3a3a3"/><path d="M287.55,241.69a1.81,1.81,0,1,0,1.86,1.75A1.81,1.81,0,0,0,287.55,241.69Z" transform="translate(-92.85 -90.49)" fill="#a3a3a3"/><path d="M266.86,231.39a1.81,1.81,0,1,0,1.87,1.75A1.8,1.8,0,0,0,266.86,231.39Z" transform="translate(-92.85 -90.49)" fill="#a3a3a3"/><path d="M308.63,238.56a1.81,1.81,0,1,0,2.9,2.15,1.81,1.81,0,0,0-2.9-2.15Z" transform="translate(-92.85 -90.49)" fill="#a3a3a3"/><path d="M317.9,232.27a1.81,1.81,0,1,0,2.53-.38A1.81,1.81,0,0,0,317.9,232.27Z" transform="translate(-92.85 -90.49)" fill="#a3a3a3"/><path d="M297.68,241.64a1.81,1.81,0,1,0,2.53-.38A1.82,1.82,0,0,0,297.68,241.64Z" transform="translate(-92.85 -90.49)" fill="#a3a3a3"/><path d="M327.52,214.19a1.8,1.8,0,1,0,1.32-2.18A1.81,1.81,0,0,0,327.52,214.19Z" transform="translate(-92.85 -90.49)" fill="#a3a3a3"/><path d="M328.73,203.46a1.81,1.81,0,1,0,1.32-2.19A1.81,1.81,0,0,0,328.73,203.46Z" transform="translate(-92.85 -90.49)" fill="#a3a3a3"/><path d="M323.84,224.93a1.8,1.8,0,0,0,2.18,1.32,1.81,1.81,0,1,0-2.18-1.32Z" transform="translate(-92.85 -90.49)" fill="#a3a3a3"/><path d="M322.51,183.67a1.81,1.81,0,0,0,1.47-3.3,1.81,1.81,0,1,0-1.47,3.3Z" transform="translate(-92.85 -90.49)" fill="#a3a3a3"/><path d="M314.3,175.52a1.82,1.82,0,0,0,2.39-.92,1.81,1.81,0,1,0-2.39.92Z" transform="translate(-92.85 -90.49)" fill="#a3a3a3"/><path d="M327.3,193.74a1.8,1.8,0,1,0-.91-2.38A1.81,1.81,0,0,0,327.3,193.74Z" transform="translate(-92.85 -90.49)" fill="#a3a3a3"/><circle cx="292.29" cy="167.21" r="1.81" transform="translate(-38.8 314.7) rotate(-74.74)" fill="#a3a3a3"/><path d="M281.92,170.77a1.8,1.8,0,1,0-2.44-.77A1.81,1.81,0,0,0,281.92,170.77Z" transform="translate(-92.85 -90.49)" fill="#a3a3a3"/><circle cx="303.99" cy="168.86" r="1.81" transform="translate(-65.41 289.19) rotate(-66.37)" fill="#a3a3a3"/><path d="M265,180.5a1.81,1.81,0,1,0-2.14,1.39A1.8,1.8,0,0,0,265,180.5Z" transform="translate(-92.85 -90.49)" fill="#d4d4d4"/><path d="M258.71,190.39a1.81,1.81,0,1,0-2.14,1.4A1.8,1.8,0,0,0,258.71,190.39Z" transform="translate(-92.85 -90.49)" fill="#d4d4d4"/><path d="M272.11,173.66a1.81,1.81,0,1,0-2.14,1.4A1.81,1.81,0,0,0,272.11,173.66Z" transform="translate(-92.85 -90.49)" fill="#d4d4d4"/><path d="M257.09,211.83a1.81,1.81,0,1,0-.23,2.54A1.8,1.8,0,0,0,257.09,211.83Z" transform="translate(-92.85 -90.49)" fill="#d4d4d4"/><path d="M261,222.89a1.81,1.81,0,1,0-.23,2.55A1.8,1.8,0,0,0,261,222.89Z" transform="translate(-92.85 -90.49)" fill="#d4d4d4"/><path d="M256.36,200.25a1.81,1.81,0,1,0-.24,2.54A1.81,1.81,0,0,0,256.36,200.25Z" transform="translate(-92.85 -90.49)" fill="#d4d4d4"/><path d="M276.07,237.55a1.81,1.81,0,1,0,1.86,1.75A1.81,1.81,0,0,0,276.07,237.55Z" transform="translate(-92.85 -90.49)" fill="#d4d4d4"/><path d="M287.17,241.31a1.81,1.81,0,1,0,1.86,1.75A1.81,1.81,0,0,0,287.17,241.31Z" transform="translate(-92.85 -90.49)" fill="#d4d4d4"/><path d="M266.48,231a1.81,1.81,0,1,0,1.87,1.75A1.8,1.8,0,0,0,266.48,231Z" transform="translate(-92.85 -90.49)" fill="#d4d4d4"/><path d="M308.25,238.18a1.81,1.81,0,1,0,2.9,2.15,1.81,1.81,0,0,0-2.9-2.15Z" transform="translate(-92.85 -90.49)" fill="#d4d4d4"/><path d="M317.52,231.89a1.81,1.81,0,1,0,2.53-.38A1.81,1.81,0,0,0,317.52,231.89Z" transform="translate(-92.85 -90.49)" fill="#d4d4d4"/><path d="M297.3,241.26a1.81,1.81,0,1,0,2.53-.38A1.82,1.82,0,0,0,297.3,241.26Z" transform="translate(-92.85 -90.49)" fill="#d4d4d4"/><path d="M327.14,213.81a1.8,1.8,0,1,0,1.32-2.18A1.81,1.81,0,0,0,327.14,213.81Z" transform="translate(-92.85 -90.49)" fill="#d4d4d4"/><path d="M328.35,203.08a1.81,1.81,0,1,0,1.32-2.19A1.81,1.81,0,0,0,328.35,203.08Z" transform="translate(-92.85 -90.49)" fill="#d4d4d4"/><path d="M323.46,224.55a1.8,1.8,0,0,0,2.18,1.32,1.81,1.81,0,1,0-2.18-1.32Z" transform="translate(-92.85 -90.49)" fill="#d4d4d4"/><path d="M322.13,183.29a1.81,1.81,0,0,0,1.47-3.3,1.81,1.81,0,1,0-1.47,3.3Z" transform="translate(-92.85 -90.49)" fill="#d4d4d4"/><circle cx="314.66" cy="173.49" r="1.81" transform="translate(-73 288.42) rotate(-63.74)" fill="#d4d4d4"/><path d="M326.92,193.36A1.8,1.8,0,1,0,326,191,1.81,1.81,0,0,0,326.92,193.36Z" transform="translate(-92.85 -90.49)" fill="#d4d4d4"/><circle cx="291.91" cy="166.83" r="1.81" transform="translate(-38.72 314.05) rotate(-74.74)" fill="#d4d4d4"/><path d="M281.54,170.39a1.8,1.8,0,1,0-2.44-.77A1.81,1.81,0,0,0,281.54,170.39Z" transform="translate(-92.85 -90.49)" fill="#d4d4d4"/><circle cx="303.61" cy="168.48" r="1.81" transform="translate(-65.28 288.63) rotate(-66.37)" fill="#d4d4d4"/><rect x="261.54" y="179.94" width="3.37" height="0.36" transform="translate(-143.13 148.4) rotate(-45)" fill="#b9b9b9"/><rect x="255.26" y="189.84" width="3.37" height="0.36" transform="translate(-151.96 146.85) rotate(-45)" fill="#b9b9b9"/><rect x="268.66" y="173.11" width="3.37" height="0.36" transform="translate(-136.21 151.43) rotate(-45)" fill="#b9b9b9"/><rect x="254.02" y="212.8" width="3.37" height="0.36" transform="translate(-168.56 152.7) rotate(-45)" fill="#b9b9b9"/><rect x="257.88" y="223.87" width="3.37" height="0.36" transform="translate(-175.26 158.67) rotate(-45)" fill="#b9b9b9"/><rect x="253.28" y="201.22" width="3.37" height="0.36" transform="translate(-160.59 148.79) rotate(-45)" fill="#b9b9b9"/><rect x="274.44" y="239.18" width="3.37" height="0.36" transform="translate(-181.23 174.87) rotate(-45)" fill="#b9b9b9"/><rect x="285.54" y="242.93" width="3.37" height="0.36" transform="translate(-180.64 183.82) rotate(-45)" fill="#b9b9b9"/><rect x="264.86" y="232.63" width="3.37" height="0.36" transform="translate(-179.41 166.18) rotate(-45)" fill="#b9b9b9"/><rect x="308.02" y="239.08" width="3.37" height="0.36" transform="translate(-171.33 198.58) rotate(-45)" fill="#b9b9b9"/><rect x="317.29" y="232.79" width="3.37" height="0.36" transform="translate(-164.16 203.29) rotate(-45)" fill="#b9b9b9"/><rect x="297.07" y="242.15" width="3.37" height="0.36" transform="translate(-176.71 191.74) rotate(-45)" fill="#b9b9b9"/><rect x="327.2" y="213.2" width="3.37" height="0.36" transform="translate(-147.41 204.57) rotate(-45)" fill="#b9b9b9"/><rect x="328.42" y="202.47" width="3.37" height="0.36" transform="translate(-139.46 202.29) rotate(-45)" fill="#b9b9b9"/><rect x="323.52" y="223.93" width="3.37" height="0.36" transform="translate(-156.07 205.12) rotate(-45)" fill="#b9b9b9"/><rect x="321.18" y="181.46" width="3.37" height="0.36" transform="translate(-126.73 191.02) rotate(-45)" fill="#b9b9b9"/><rect x="312.97" y="173.3" width="3.37" height="0.36" transform="translate(-123.37 182.83) rotate(-45)" fill="#b9b9b9"/><rect x="325.97" y="191.53" width="3.37" height="0.36" transform="translate(-132.45 197.36) rotate(-45)" fill="#b9b9b9"/><rect x="290.22" y="166.65" width="3.37" height="0.36" transform="translate(-125.32 164.79) rotate(-45)" fill="#b9b9b9"/><rect x="279.02" y="168.61" width="3.37" height="0.36" transform="translate(-129.99 157.44) rotate(-45)" fill="#b9b9b9"/><rect x="301.92" y="168.3" width="3.37" height="0.36" transform="translate(-123.06 173.54) rotate(-45)" fill="#b9b9b9"/><path d="M402.93,94.5s-9.86-8.07-51.43-1.33c-43.91,7.12-71.77,34.12-90.75,52.89-24.56,24.28-65.05,80.15-84.19,127.72h0S264.91,88.42,402.93,94.5Z" transform="translate(-92.85 -90.49)" fill="#fff" opacity="0.33" style="mix-blend-mode:soft-light"/><polygon points="88.76 188.21 84.39 192.5 82.86 191 87.16 186.67 88.76 188.21" fill="#fff" opacity="0.33" style="mix-blend-mode:soft-light"/><g opacity="0.48"><g clip-path="url(#clip-path-3)"><path d="M225.16,321.86S401.43,232.53,402.93,94.5l49.75,21.83L288.05,369.84S254.86,357.38,225.16,321.86Z" transform="translate(-92.85 -90.49)" fill="url(#Degradado_sin_nombre_126-2)" style="mix-blend-mode:soft-light"/></g></g><path d="M225.16,321.86l3.48,12.67s33.9-16.71,54.68-43.73h0S245.8,313.3,225.16,321.86Z" transform="translate(-92.85 -90.49)" fill="url(#Degradado_sin_nombre_126-3)" style="mix-blend-mode:soft-light"/><path d="M209.81,372.68c10.42-10.21,14.33-20.07,15-21.95a18.92,18.92,0,0,1-1.27,2.45,77.19,77.19,0,0,1-10.68,14.34c-6.26,6.93-15.33,16.14-16.66,20.11a1.56,1.56,0,0,0,.26,1.73h0S198.24,384,209.81,372.68Z" transform="translate(-92.85 -90.49)" fill="#fff" opacity="0.33" style="mix-blend-mode:soft-light"/></g></g></svg>