<svg id="OBJECTS" xmlns="http://www.w3.org/2000/svg" viewBox="0 0 762.36 516.01"><path d="M35.06,404.41c20.85,6.38,36.85,20,52,35.18,14.56,14.58,29,29.94,48,38.81,39.09,18.29,85,9,123.29-6.66,42.78-17.52,83-43.88,129.23-51.57,22.68-3.77,47-2,66.71,10.71,16.37,10.49,25.25,27.12,28.94,45.8,2.1,10.62,2.82,21.41,3.39,32.2h4.95c-.16-3.06-.32-6.11-.54-9.16C489.73,482,487.33,463.67,478,448.2c-10.55-17.57-29.26-28.72-49.06-32.78-24.17-4.95-49.23-.23-72.3,7.44-22.23,7.38-43.27,17.81-64.34,27.95-40.2,19.35-84.75,39-130.48,30.83a96.85,96.85,0,0,1-30.57-10.76c-9.35-5.27-17.59-12.2-25.35-19.57C90.75,436.89,77,420.49,58.88,409.58A102.42,102.42,0,0,0-4.2,395.64l-.1,0v5.06A98,98,0,0,1,35.06,404.41Z" transform="translate(4.8 6.62)" fill="#a6c6a9" stroke="#a6c6a9" stroke-miterlimit="10"/><path d="M61.64,479.91c47.84,17.87,100.52,1,136.29-16.32,18.41-8.9,36.34-19.47,53.68-29.69,22.45-13.23,45.67-26.9,70.09-37.08,23.83-9.93,84.31-29.68,131,1.22,26.84,17.78,45.5,50.58,55.46,97.49.93,4.41,1.78,8.88,2.6,13.35h1c-.83-4.54-1.69-9.07-2.64-13.56-10-47.17-28.82-80.18-55.89-98.11-47.07-31.17-107.93-11.3-131.91-1.31-24.48,10.2-47.73,23.89-70.2,37.14-17.33,10.21-35.24,20.76-53.61,29.65-35.6,17.23-88,34-135.51,16.29-16.93-6.33-32.38-16.77-47.31-26.87-6.22-4.21-12.53-8.46-19-12.45v1.17c6.26,3.89,12.37,8,18.42,12.11C29.1,463.07,44.59,473.55,61.64,479.91Z" transform="translate(4.8 6.62)" fill="#fff" stroke="#a6c6a9" stroke-miterlimit="10"/><path d="M615.9,160.38c-21.53-3.9-42.83-12.29-58-28.63a64.8,64.8,0,0,1-15-25.91,70,70,0,0,1-1.83-27.12c2.1-18.79,9.46-36.6,15.12-54.49,3.11-9.83,5.91-20,7-30.35h-5c-.14,1.19-.3,2.39-.49,3.57-3,19.16-10.72,37.17-16.19,55.67-5.23,17.69-8.71,36.78-3.25,54.85,6,19.93,21.63,35.75,39.79,45.23,21,11,45,14.46,68.4,15.19,25.78.81,51.48-2,77.18-3.6,10.94-.69,22.12-1.12,33.33-1v-5.11C710,158,662.7,168.84,615.9,160.38Z" transform="translate(4.8 6.62)" fill="#a6c6a9" stroke="#a6c6a9" stroke-miterlimit="10"/><circle cx="67.29" cy="134.44" r="1.22" fill="#a6c6a9" stroke="#a6c6a9" stroke-miterlimit="10"/><circle cx="84.95" cy="134.44" r="1.22" fill="#a6c6a9" stroke="#a6c6a9" stroke-miterlimit="10"/><circle cx="102.61" cy="134.44" r="1.22" fill="#a6c6a9" stroke="#a6c6a9" stroke-miterlimit="10"/><path d="M116.69,127.82a1.22,1.22,0,1,1-1.22-1.22A1.22,1.22,0,0,1,116.69,127.82Z" transform="translate(4.8 6.62)" fill="#a6c6a9" stroke="#a6c6a9" stroke-miterlimit="10"/><circle cx="137.93" cy="134.44" r="1.22" fill="#a6c6a9" stroke="#a6c6a9" stroke-miterlimit="10"/><circle cx="155.59" cy="134.44" r="1.22" fill="#a6c6a9" stroke="#a6c6a9" stroke-miterlimit="10"/><circle cx="173.25" cy="134.44" r="1.22" fill="#a6c6a9" stroke="#a6c6a9" stroke-miterlimit="10"/><circle cx="190.91" cy="134.44" r="1.22" fill="#a6c6a9" stroke="#a6c6a9" stroke-miterlimit="10"/><circle cx="208.57" cy="134.44" r="1.22" fill="#a6c6a9" stroke="#a6c6a9" stroke-miterlimit="10"/><circle cx="67.29" cy="146.32" r="1.22" fill="#a6c6a9" stroke="#a6c6a9" stroke-miterlimit="10"/><circle cx="84.95" cy="146.32" r="1.22" fill="#a6c6a9" stroke="#a6c6a9" stroke-miterlimit="10"/><circle cx="102.61" cy="146.32" r="1.22" fill="#a6c6a9" stroke="#a6c6a9" stroke-miterlimit="10"/><path d="M116.69,139.69a1.22,1.22,0,1,1-1.22-1.22A1.22,1.22,0,0,1,116.69,139.69Z" transform="translate(4.8 6.62)" fill="#a6c6a9" stroke="#a6c6a9" stroke-miterlimit="10"/><circle cx="137.93" cy="146.32" r="1.22" fill="#a6c6a9" stroke="#a6c6a9" stroke-miterlimit="10"/><circle cx="155.59" cy="146.32" r="1.22" fill="#a6c6a9" stroke="#a6c6a9" stroke-miterlimit="10"/><circle cx="173.25" cy="146.32" r="1.22" fill="#a6c6a9" stroke="#a6c6a9" stroke-miterlimit="10"/><circle cx="190.91" cy="146.32" r="1.22" fill="#a6c6a9" stroke="#a6c6a9" stroke-miterlimit="10"/><circle cx="208.57" cy="146.32" r="1.22" fill="#a6c6a9" stroke="#a6c6a9" stroke-miterlimit="10"/><circle cx="67.29" cy="158.19" r="1.22" fill="#a6c6a9" stroke="#a6c6a9" stroke-miterlimit="10"/><circle cx="84.95" cy="158.19" r="1.22" fill="#a6c6a9" stroke="#a6c6a9" stroke-miterlimit="10"/><circle cx="102.61" cy="158.19" r="1.22" fill="#a6c6a9" stroke="#a6c6a9" stroke-miterlimit="10"/><path d="M116.69,151.56a1.22,1.22,0,1,1-2.44,0,1.22,1.22,0,1,1,2.44,0Z" transform="translate(4.8 6.62)" fill="#a6c6a9" stroke="#a6c6a9" stroke-miterlimit="10"/><circle cx="137.93" cy="158.19" r="1.22" fill="#a6c6a9" stroke="#a6c6a9" stroke-miterlimit="10"/><circle cx="155.59" cy="158.19" r="1.22" fill="#a6c6a9" stroke="#a6c6a9" stroke-miterlimit="10"/><circle cx="173.25" cy="158.19" r="1.22" fill="#a6c6a9" stroke="#a6c6a9" stroke-miterlimit="10"/><circle cx="190.91" cy="158.19" r="1.22" fill="#a6c6a9" stroke="#a6c6a9" stroke-miterlimit="10"/><circle cx="208.57" cy="158.19" r="1.22" fill="#a6c6a9" stroke="#a6c6a9" stroke-miterlimit="10"/><circle cx="67.29" cy="170.06" r="1.22" fill="#a6c6a9" stroke="#a6c6a9" stroke-miterlimit="10"/><circle cx="84.95" cy="170.06" r="1.22" fill="#a6c6a9" stroke="#a6c6a9" stroke-miterlimit="10"/><circle cx="102.61" cy="170.06" r="1.22" fill="#a6c6a9" stroke="#a6c6a9" stroke-miterlimit="10"/><path d="M116.69,163.43a1.22,1.22,0,1,1-2.44,0,1.22,1.22,0,1,1,2.44,0Z" transform="translate(4.8 6.62)" fill="#a6c6a9" stroke="#a6c6a9" stroke-miterlimit="10"/><circle cx="137.93" cy="170.06" r="1.22" fill="#a6c6a9" stroke="#a6c6a9" stroke-miterlimit="10"/><circle cx="155.59" cy="170.06" r="1.22" fill="#a6c6a9" stroke="#a6c6a9" stroke-miterlimit="10"/><circle cx="173.25" cy="170.06" r="1.22" fill="#a6c6a9" stroke="#a6c6a9" stroke-miterlimit="10"/><circle cx="190.91" cy="170.06" r="1.22" fill="#a6c6a9" stroke="#a6c6a9" stroke-miterlimit="10"/><circle cx="208.57" cy="170.06" r="1.22" fill="#a6c6a9" stroke="#a6c6a9" stroke-miterlimit="10"/><path d="M289.68,211.1a1.22,1.22,0,1,1-1.22-1.22A1.22,1.22,0,0,1,289.68,211.1Z" transform="translate(4.8 6.62)" fill="#a6c6a9" stroke="#a6c6a9" stroke-miterlimit="10"/><path d="M523.53,431.05a1.22,1.22,0,1,1-1.22-1.22A1.22,1.22,0,0,1,523.53,431.05Z" transform="translate(4.8 6.62)" fill="#a6c6a9" stroke="#a6c6a9" stroke-miterlimit="10"/><path d="M90.37,61.71a1.22,1.22,0,1,1-1.22-1.22A1.22,1.22,0,0,1,90.37,61.71Z" transform="translate(4.8 6.62)" fill="#a6c6a9" stroke="#a6c6a9" stroke-miterlimit="10"/><path d="M239.73,49.21A1.22,1.22,0,1,1,238.51,48,1.22,1.22,0,0,1,239.73,49.21Z" transform="translate(4.8 6.62)" fill="#a6c6a9" stroke="#a6c6a9" stroke-miterlimit="10"/><circle cx="101.39" cy="341.79" r="1.22" fill="#a6c6a9" stroke="#a6c6a9" stroke-miterlimit="10"/><circle cx="712.54" cy="256.62" r="1.22" fill="#a6c6a9" stroke="#a6c6a9" stroke-miterlimit="10"/><circle cx="67.29" cy="181.93" r="1.22" fill="#a6c6a9" stroke="#a6c6a9" stroke-miterlimit="10"/><circle cx="84.95" cy="181.93" r="1.22" fill="#a6c6a9" stroke="#a6c6a9" stroke-miterlimit="10"/><circle cx="102.61" cy="181.93" r="1.22" fill="#a6c6a9" stroke="#a6c6a9" stroke-miterlimit="10"/><path d="M116.69,175.3a1.22,1.22,0,1,1-2.44,0,1.22,1.22,0,1,1,2.44,0Z" transform="translate(4.8 6.62)" fill="#a6c6a9" stroke="#a6c6a9" stroke-miterlimit="10"/><circle cx="137.93" cy="181.93" r="1.22" fill="#a6c6a9" stroke="#a6c6a9" stroke-miterlimit="10"/><circle cx="155.59" cy="181.93" r="1.22" fill="#a6c6a9" stroke="#a6c6a9" stroke-miterlimit="10"/><circle cx="173.25" cy="181.93" r="1.22" fill="#a6c6a9" stroke="#a6c6a9" stroke-miterlimit="10"/><circle cx="190.91" cy="181.93" r="1.22" fill="#a6c6a9" stroke="#a6c6a9" stroke-miterlimit="10"/><path d="M604.22,206a1.22,1.22,0,1,1-1.22-1.22A1.22,1.22,0,0,1,604.22,206Z" transform="translate(4.8 6.62)" fill="#a6c6a9" stroke="#a6c6a9" stroke-miterlimit="10"/><circle cx="208.57" cy="181.93" r="1.22" fill="#a6c6a9" stroke="#a6c6a9" stroke-miterlimit="10"/><circle cx="346.22" cy="414.62" r="1.22" fill="#a6c6a9" stroke="#a6c6a9" stroke-miterlimit="10"/><circle cx="486.72" cy="331.91" r="1.22" fill="#a6c6a9" stroke="#a6c6a9" stroke-miterlimit="10"/><circle cx="612.8" cy="484.46" r="1.22" fill="#a6c6a9" stroke="#a6c6a9" stroke-miterlimit="10"/><path d="M420.59,102.59a1.22,1.22,0,1,1-1.22-1.22A1.22,1.22,0,0,1,420.59,102.59Z" transform="translate(4.8 6.62)" fill="#a6c6a9" stroke="#a6c6a9" stroke-miterlimit="10"/><circle cx="571.26" cy="343.01" r="1.22" fill="#a6c6a9" stroke="#a6c6a9" stroke-miterlimit="10"/><circle cx="588.92" cy="343.01" r="1.22" fill="#a6c6a9" stroke="#a6c6a9" stroke-miterlimit="10"/><circle cx="606.58" cy="343.01" r="1.22" fill="#a6c6a9" stroke="#a6c6a9" stroke-miterlimit="10"/><circle cx="624.24" cy="343.01" r="1.22" fill="#a6c6a9" stroke="#a6c6a9" stroke-miterlimit="10"/><circle cx="641.9" cy="343.01" r="1.22" fill="#a6c6a9" stroke="#a6c6a9" stroke-miterlimit="10"/><circle cx="659.56" cy="343.01" r="1.22" fill="#a6c6a9" stroke="#a6c6a9" stroke-miterlimit="10"/><path d="M673.65,336.38a1.22,1.22,0,1,1-1.22-1.22A1.22,1.22,0,0,1,673.65,336.38Z" transform="translate(4.8 6.62)" fill="#a6c6a9" stroke="#a6c6a9" stroke-miterlimit="10"/><circle cx="694.88" cy="343.01" r="1.22" fill="#a6c6a9" stroke="#a6c6a9" stroke-miterlimit="10"/><circle cx="712.54" cy="343.01" r="1.22" fill="#a6c6a9" stroke="#a6c6a9" stroke-miterlimit="10"/><circle cx="571.26" cy="354.88" r="1.22" fill="#a6c6a9" stroke="#a6c6a9" stroke-miterlimit="10"/><circle cx="588.92" cy="354.88" r="1.22" fill="#a6c6a9" stroke="#a6c6a9" stroke-miterlimit="10"/><circle cx="606.58" cy="354.88" r="1.22" fill="#a6c6a9" stroke="#a6c6a9" stroke-miterlimit="10"/><circle cx="624.24" cy="354.88" r="1.22" fill="#a6c6a9" stroke="#a6c6a9" stroke-miterlimit="10"/><circle cx="641.9" cy="354.88" r="1.22" fill="#a6c6a9" stroke="#a6c6a9" stroke-miterlimit="10"/><circle cx="659.56" cy="354.88" r="1.22" fill="#a6c6a9" stroke="#a6c6a9" stroke-miterlimit="10"/><path d="M673.65,348.25a1.22,1.22,0,1,1-1.22-1.22A1.22,1.22,0,0,1,673.65,348.25Z" transform="translate(4.8 6.62)" fill="#a6c6a9" stroke="#a6c6a9" stroke-miterlimit="10"/><circle cx="694.88" cy="354.88" r="1.22" fill="#a6c6a9" stroke="#a6c6a9" stroke-miterlimit="10"/><circle cx="712.54" cy="354.88" r="1.22" fill="#a6c6a9" stroke="#a6c6a9" stroke-miterlimit="10"/><circle cx="571.26" cy="366.75" r="1.22" fill="#a6c6a9" stroke="#a6c6a9" stroke-miterlimit="10"/><circle cx="588.92" cy="366.75" r="1.22" fill="#a6c6a9" stroke="#a6c6a9" stroke-miterlimit="10"/><circle cx="606.58" cy="366.75" r="1.22" fill="#a6c6a9" stroke="#a6c6a9" stroke-miterlimit="10"/><circle cx="624.24" cy="366.75" r="1.22" fill="#a6c6a9" stroke="#a6c6a9" stroke-miterlimit="10"/><circle cx="641.9" cy="366.75" r="1.22" fill="#a6c6a9" stroke="#a6c6a9" stroke-miterlimit="10"/><circle cx="659.56" cy="366.75" r="1.22" fill="#a6c6a9" stroke="#a6c6a9" stroke-miterlimit="10"/><path d="M673.65,360.12a1.22,1.22,0,1,1-1.22-1.22A1.22,1.22,0,0,1,673.65,360.12Z" transform="translate(4.8 6.62)" fill="#a6c6a9" stroke="#a6c6a9" stroke-miterlimit="10"/><circle cx="694.88" cy="366.75" r="1.22" fill="#a6c6a9" stroke="#a6c6a9" stroke-miterlimit="10"/><circle cx="712.54" cy="366.75" r="1.22" fill="#a6c6a9" stroke="#a6c6a9" stroke-miterlimit="10"/><circle cx="571.26" cy="378.62" r="1.22" fill="#a6c6a9" stroke="#a6c6a9" stroke-miterlimit="10"/><circle cx="588.92" cy="378.62" r="1.22" fill="#a6c6a9" stroke="#a6c6a9" stroke-miterlimit="10"/><circle cx="606.58" cy="378.62" r="1.22" fill="#a6c6a9" stroke="#a6c6a9" stroke-miterlimit="10"/><circle cx="624.24" cy="378.62" r="1.22" fill="#a6c6a9" stroke="#a6c6a9" stroke-miterlimit="10"/><circle cx="641.9" cy="378.62" r="1.22" fill="#a6c6a9" stroke="#a6c6a9" stroke-miterlimit="10"/><circle cx="659.56" cy="378.62" r="1.22" fill="#a6c6a9" stroke="#a6c6a9" stroke-miterlimit="10"/><path d="M673.65,372a1.22,1.22,0,1,1-1.22-1.22A1.22,1.22,0,0,1,673.65,372Z" transform="translate(4.8 6.62)" fill="#a6c6a9" stroke="#a6c6a9" stroke-miterlimit="10"/><circle cx="694.88" cy="378.62" r="1.22" fill="#a6c6a9" stroke="#a6c6a9" stroke-miterlimit="10"/><circle cx="712.54" cy="378.62" r="1.22" fill="#a6c6a9" stroke="#a6c6a9" stroke-miterlimit="10"/><circle cx="571.26" cy="390.49" r="1.22" fill="#a6c6a9" stroke="#a6c6a9" stroke-miterlimit="10"/><circle cx="588.92" cy="390.49" r="1.22" fill="#a6c6a9" stroke="#a6c6a9" stroke-miterlimit="10"/><circle cx="606.58" cy="390.49" r="1.22" fill="#a6c6a9" stroke="#a6c6a9" stroke-miterlimit="10"/><circle cx="624.24" cy="390.49" r="1.22" fill="#a6c6a9" stroke="#a6c6a9" stroke-miterlimit="10"/><circle cx="641.9" cy="390.49" r="1.22" fill="#a6c6a9" stroke="#a6c6a9" stroke-miterlimit="10"/><circle cx="659.56" cy="390.49" r="1.22" fill="#a6c6a9" stroke="#a6c6a9" stroke-miterlimit="10"/><path d="M673.65,383.87a1.22,1.22,0,0,1-2.44,0,1.22,1.22,0,1,1,2.44,0Z" transform="translate(4.8 6.62)" fill="#a6c6a9" stroke="#a6c6a9" stroke-miterlimit="10"/><circle cx="694.88" cy="390.49" r="1.22" fill="#a6c6a9" stroke="#a6c6a9" stroke-miterlimit="10"/><circle cx="712.54" cy="390.49" r="1.22" fill="#a6c6a9" stroke="#a6c6a9" stroke-miterlimit="10"/><polygon points="31.64 212.65 24.56 219.72 42.76 237.92 24.56 256.12 31.64 263.19 56.91 237.92 31.64 212.65" fill="none" stroke="#a6c6a9" stroke-miterlimit="10" stroke-width="0.67"/><polygon points="57.27 237.92 39.07 256.12 46.15 263.19 71.42 237.92 46.15 212.65 39.07 219.72 57.27 237.92" fill="none" stroke="#a6c6a9" stroke-miterlimit="10" stroke-width="0.67" opacity="0.94"/><polygon points="71.78 237.92 53.58 256.12 60.66 263.19 85.93 237.92 60.66 212.65 53.58 219.72 71.78 237.92" fill="none" stroke="#a6c6a9" stroke-miterlimit="10" stroke-width="0.67" opacity="0.88"/><polygon points="86.29 237.92 68.09 256.12 75.17 263.19 100.44 237.92 75.17 212.65 68.09 219.72 86.29 237.92" fill="none" stroke="#a6c6a9" stroke-miterlimit="10" stroke-width="0.67" opacity="0.81"/><polygon points="100.8 237.92 82.6 256.12 89.68 263.19 114.94 237.92 89.68 212.65 82.6 219.72 100.8 237.92" fill="none" stroke="#a6c6a9" stroke-miterlimit="10" stroke-width="0.67" opacity="0.75"/><polygon points="115.31 237.92 97.11 256.12 104.19 263.19 129.46 237.92 104.19 212.65 97.11 219.72 115.31 237.92" fill="none" stroke="#a6c6a9" stroke-miterlimit="10" stroke-width="0.67" opacity="0.69"/><polygon points="129.82 237.92 111.62 256.12 118.69 263.19 143.96 237.92 118.69 212.65 111.62 219.72 129.82 237.92" fill="none" stroke="#a6c6a9" stroke-miterlimit="10" stroke-width="0.67" opacity="0.63"/><polygon points="144.33 237.92 126.13 256.12 133.21 263.19 158.47 237.92 133.21 212.65 126.13 219.72 144.33 237.92" fill="none" stroke="#a6c6a9" stroke-miterlimit="10" stroke-width="0.67" opacity="0.56"/><polygon points="158.84 237.92 140.64 256.12 147.71 263.19 172.98 237.92 147.71 212.65 140.64 219.72 158.84 237.92" fill="none" stroke="#a6c6a9" stroke-miterlimit="10" stroke-width="0.67" opacity="0.5"/><polygon points="173.35 237.92 155.15 256.12 162.22 263.19 187.49 237.92 162.22 212.65 155.15 219.72 173.35 237.92" fill="none" stroke="#a6c6a9" stroke-miterlimit="10" stroke-width="0.67" opacity="0.44"/><polygon points="187.86 237.92 169.66 256.12 176.73 263.19 202 237.92 176.73 212.65 169.66 219.72 187.86 237.92" fill="none" stroke="#a6c6a9" stroke-miterlimit="10" stroke-width="0.67" opacity="0.38"/><polygon points="202.37 237.92 184.17 256.12 191.24 263.19 216.51 237.92 191.24 212.65 184.17 219.72 202.37 237.92" fill="none" stroke="#a6c6a9" stroke-miterlimit="10" stroke-width="0.67" opacity="0.31"/><polygon points="216.88 237.92 198.68 256.12 205.75 263.19 231.02 237.92 205.75 212.65 198.68 219.72 216.88 237.92" fill="none" stroke="#a6c6a9" stroke-miterlimit="10" stroke-width="0.67" opacity="0.25"/><polygon points="231.39 237.92 213.19 256.12 220.26 263.19 245.53 237.92 220.26 212.65 213.19 219.72 231.39 237.92" fill="none" stroke="#a6c6a9" stroke-miterlimit="10" stroke-width="0.67" opacity="0.19"/><polygon points="245.9 237.92 227.7 256.12 234.77 263.19 260.04 237.92 234.77 212.65 227.7 219.72 245.9 237.92" fill="none" stroke="#a6c6a9" stroke-miterlimit="10" stroke-width="0.67" opacity="0.13"/><polygon points="260.4 237.92 242.21 256.12 249.28 263.19 274.55 237.92 249.28 212.65 242.21 219.72 260.4 237.92" fill="none" stroke="#a6c6a9" stroke-miterlimit="10" stroke-width="0.67" opacity="0.06"/><polygon points="263.79 212.65 256.72 219.72 274.92 237.92 256.72 256.12 263.79 263.19 289.06 237.92 263.79 212.65" fill="none" stroke="#a6c6a9" stroke-miterlimit="10" stroke-width="0.67" opacity="0"/><polygon points="688.14 320.68 693.48 315.34 679.73 301.59 693.48 287.85 688.14 282.5 669.05 301.59 688.14 320.68" fill="none" stroke="#a6c6a9" stroke-miterlimit="10" stroke-width="0.51"/><polygon points="668.77 301.59 682.52 287.85 677.17 282.5 658.09 301.59 677.17 320.68 682.52 315.34 668.77 301.59" fill="none" stroke="#a6c6a9" stroke-miterlimit="10" stroke-width="0.51" opacity="0.94"/><polygon points="657.81 301.59 671.56 287.85 666.21 282.5 647.12 301.59 666.21 320.68 671.56 315.34 657.81 301.59" fill="none" stroke="#a6c6a9" stroke-miterlimit="10" stroke-width="0.51" opacity="0.88"/><polygon points="646.85 301.59 660.6 287.85 655.25 282.5 636.16 301.59 655.25 320.68 660.6 315.34 646.85 301.59" fill="none" stroke="#a6c6a9" stroke-miterlimit="10" stroke-width="0.51" opacity="0.81"/><polygon points="635.89 301.59 649.63 287.85 644.29 282.5 625.2 301.59 644.29 320.68 649.63 315.34 635.89 301.59" fill="none" stroke="#a6c6a9" stroke-miterlimit="10" stroke-width="0.51" opacity="0.75"/><polygon points="624.93 301.59 638.67 287.85 633.33 282.5 614.24 301.59 633.33 320.68 638.67 315.34 624.93 301.59" fill="none" stroke="#a6c6a9" stroke-miterlimit="10" stroke-width="0.51" opacity="0.69"/><polygon points="613.97 301.59 627.71 287.85 622.37 282.5 603.28 301.59 622.37 320.68 627.71 315.34 613.97 301.59" fill="none" stroke="#a6c6a9" stroke-miterlimit="10" stroke-width="0.51" opacity="0.63"/><polygon points="603 301.59 616.75 287.85 611.41 282.5 592.32 301.59 611.41 320.68 616.75 315.34 603 301.59" fill="none" stroke="#a6c6a9" stroke-miterlimit="10" stroke-width="0.51" opacity="0.56"/><polygon points="592.04 301.59 605.79 287.85 600.45 282.5 581.36 301.59 600.45 320.68 605.79 315.34 592.04 301.59" fill="none" stroke="#a6c6a9" stroke-miterlimit="10" stroke-width="0.51" opacity="0.5"/><polygon points="581.08 301.59 594.83 287.85 589.49 282.5 570.39 301.59 589.49 320.68 594.83 315.34 581.08 301.59" fill="none" stroke="#a6c6a9" stroke-miterlimit="10" stroke-width="0.51" opacity="0.44"/><polygon points="570.12 301.59 583.87 287.85 578.52 282.5 559.43 301.59 578.52 320.68 583.87 315.34 570.12 301.59" fill="none" stroke="#a6c6a9" stroke-miterlimit="10" stroke-width="0.51" opacity="0.38"/><polygon points="559.16 301.59 572.9 287.85 567.56 282.5 548.47 301.59 567.56 320.68 572.9 315.34 559.16 301.59" fill="none" stroke="#a6c6a9" stroke-miterlimit="10" stroke-width="0.51" opacity="0.31"/><polygon points="548.2 301.59 561.94 287.85 556.6 282.5 537.51 301.59 556.6 320.68 561.94 315.34 548.2 301.59" fill="none" stroke="#a6c6a9" stroke-miterlimit="10" stroke-width="0.51" opacity="0.25"/><polygon points="537.24 301.59 550.98 287.85 545.64 282.5 526.55 301.59 545.64 320.68 550.98 315.34 537.24 301.59" fill="none" stroke="#a6c6a9" stroke-miterlimit="10" stroke-width="0.51" opacity="0.19"/><polygon points="526.27 301.59 540.02 287.85 534.68 282.5 515.59 301.59 534.68 320.68 540.02 315.34 526.27 301.59" fill="none" stroke="#a6c6a9" stroke-miterlimit="10" stroke-width="0.51" opacity="0.13"/><polygon points="515.31 301.59 529.06 287.85 523.72 282.5 504.63 301.59 523.72 320.68 529.06 315.34 515.31 301.59" fill="none" stroke="#a6c6a9" stroke-miterlimit="10" stroke-width="0.51" opacity="0.06"/><polygon points="512.76 320.68 518.1 315.34 504.35 301.59 518.1 287.85 512.76 282.5 493.67 301.59 512.76 320.68" fill="none" stroke="#a6c6a9" stroke-miterlimit="10" stroke-width="0.51" opacity="0"/><path d="M689.55,176.63l-13.9,1.4c-53.48,5.46-108.77,11.1-155.6-13.37-27.94-14.6-49.59-38.66-70.52-61.93-17.3-19.24-35.2-39.14-56.71-53.85-43-29.42-98.18-36.15-141.45-38.73-11-.66-22.17-1.12-33-1.57C180.49,7,141.32,5.4,104.3-4.71c-1.68-.45-3.33-.93-5-1.41H95.94c2.62.82,5.32,1.62,8.1,2.38C141.16,6.39,180.39,8,218.33,9.58c10.82.45,22,.91,33,1.56,43.14,2.58,98.14,9.28,141,38.57,21.4,14.64,39.26,34.49,56.53,53.69,21,23.33,42.69,47.46,70.8,62.15C566.68,190.16,622.13,184.5,675.75,179q7-.72,13.9-1.4c21.15-2.07,44.4-3.43,67.41-1.76v-1C734,173.2,710.73,174.56,689.55,176.63Z" transform="translate(4.8 6.62)" fill="#fff" stroke="#a6c6a9" stroke-miterlimit="10"/></svg>