<svg id="green_curve" data-name="green curve" xmlns="http://www.w3.org/2000/svg" viewBox="0 0 554.07 270.23"><path d="M862,104.85c2,10.72,16.34,59.24,35.23,65.87s40.85,5.11,47.49-24-31.15-26.37-35.23-7.31c-5.11,14-9.19,38.46,20.93,43.06s88.34,17.87,65.36,55.66c-14.29,40.34-38.29,40.34-44.93,16.85s80.17-49,94-37.28c17.36,7.66,24,32.17-5.11,80.68-27.06,51.07-8.68,79.66,61.79,67.92,68.42-11.24,167-49.53,192-67.41s33.19-44.93,54.64-28.08c18.38,15.32-8.69,22.47-9.2,11.23-2.55-11.23,16.85-31.15,29.62-30.13s15.32-6.12,12.26-20.42c-2-22.47,13.8-2,24.52-3.56s9.18-20.44,9.18-20.44" transform="translate(-861.22 -104.71)" fill="none" stroke="#9fbfa2" stroke-miterlimit="10" stroke-width="1.5"/><path d="M901.28,164.13c-2.58,0-2.58,4,0,4S903.85,164.13,901.28,164.13Z" transform="translate(-861.22 -104.71)" fill="#9fbfa2"/><path d="M947.23,137a.5.5,0,0,0,0,1A.5.5,0,0,0,947.23,137Z" transform="translate(-861.22 -104.71)" fill="#9fbfa2"/><path d="M1003.91,213.14a1.5,1.5,0,0,0,0,3A1.5,1.5,0,0,0,1003.91,213.14Z" transform="translate(-861.22 -104.71)" fill="#9fbfa2"/><path d="M1026.89,353a1,1,0,0,0,0,2A1,1,0,0,0,1026.89,353Z" transform="translate(-861.22 -104.71)" fill="#9fbfa2"/><path d="M1100.94,370.94c-2.58,0-2.58,4,0,4S1103.51,370.94,1100.94,370.94Z" transform="translate(-861.22 -104.71)" fill="#9fbfa2"/><path d="M1240.34,318.33a1.5,1.5,0,0,0,0,3A1.5,1.5,0,0,0,1240.34,318.33Z" transform="translate(-861.22 -104.71)" fill="#9fbfa2"/><path d="M1349.62,266.24a1.5,1.5,0,0,0,0,3A1.5,1.5,0,0,0,1349.62,266.24Z" transform="translate(-861.22 -104.71)" fill="#9fbfa2"/><path d="M1374.13,240.2a1.5,1.5,0,0,0,0,3A1.5,1.5,0,0,0,1374.13,240.2Z" transform="translate(-861.22 -104.71)" fill="#9fbfa2"/></svg>