<svg xmlns="http://www.w3.org/2000/svg" xmlns:xlink="http://www.w3.org/1999/xlink" viewBox="0 0 426.79 423.89"><defs><clipPath id="clip-path" transform="translate(-38.05 -38.05)"><rect x="268.09" y="130.82" width="37.07" height="47.92" transform="translate(61.58 -80.73) rotate(17.93)" fill="none"/></clipPath><clipPath id="clip-path-2" transform="translate(-38.05 -38.05)"><rect x="103.6" y="275.74" width="37.44" height="48.4" transform="translate(-114.52 78.96) rotate(-24.8)" fill="none"/></clipPath></defs><g style="isolation:isolate"><g id="OBJECTS"><circle cx="211.95" cy="211.95" r="211.95" fill="#deedff"/><path d="M331.08,189.39l-1.69-2.31-84.78-116-1.68-2.31a10,10,0,0,0-14-2.17l-2.63,1.93L46.25,200.12l-2.64,1.93a9.77,9.77,0,0,0-1.51,1.35,9.87,9.87,0,0,0-.84,1.09,10,10,0,0,0-1.59,3.93c0,.08,0,.16-.05.25a11,11,0,0,0-.1,1.82c0,.32,0,.64.08,1a10.39,10.39,0,0,0,.45,1.89A10.16,10.16,0,0,0,41.44,216l1.68,2.3,48.13,65.86,36.65,50.15h0l1.68,2.31a10,10,0,0,0,14,2.17l2.64-1.92L326.27,205.27l2.64-1.92A10,10,0,0,0,331.08,189.39Z" transform="translate(-38.05 -38.05)" fill="#cddffa" style="mix-blend-mode:multiply"/><path d="M231.13,56.34l-2.64,1.93L48.41,189.87l-2.64,1.93a10,10,0,0,0-2.17,14l1.69,2.3,84.78,116,1.68,2.31a10,10,0,0,0,14,2.17l2.64-1.92L328.43,195l2.64-1.92a10,10,0,0,0,2.17-14l-1.69-2.31-84.78-116-1.68-2.31A10,10,0,0,0,231.13,56.34Z" transform="translate(-38.05 -38.05)" fill="#ff931d"/><path d="M326.74,192.72,144,326.24a10,10,0,0,1-14-2.17L43.6,205.76a10,10,0,0,1,2.17-14L228.49,58.27a10,10,0,0,1,14,2.17l86.47,118.32A10,10,0,0,1,326.74,192.72Z" transform="translate(-38.05 -38.05)" fill="#ffb31a"/><circle cx="185.25" cy="192.99" r="25.27" transform="translate(-48.37 -27.59) rotate(-3.15)" fill="#ffc82e"/><path d="M426.19,241.5a8,8,0,0,0-2.83-10.85l-16.8-9.92c2.73-4.63-.26-11.45-6.68-15.24S386,202.37,383.31,207l-16.8-9.92a8,8,0,0,0-10.87,2.76L317,177,203.17,369.74,351,457.06,464.85,264.33Z" transform="translate(-38.05 -38.05)" fill="#cddffa" style="mix-blend-mode:multiply"/><rect x="245.25" y="192.85" width="171.72" height="223.82" transform="translate(162.92 -164.08) rotate(30.56)" fill="#29477c"/><rect x="258.3" y="206.95" width="145.6" height="195.62" transform="translate(162.92 -164.08) rotate(30.56)" fill="#ffe6ca"/><path d="M353.15,200h66a8,8,0,0,1,8,8V223.1a0,0,0,0,1,0,0H345.19a0,0,0,0,1,0,0V207.95a8,8,0,0,1,8-8Z" transform="translate(123.16 -205.02) rotate(30.56)" fill="#0d1b35"/><ellipse cx="392.03" cy="201.59" rx="9.73" ry="13.5" transform="translate(-18.95 398.6) rotate(-59.44)" fill="#0d1b35"/><g style="mix-blend-mode:multiply"><path d="M339.47,54.46l-3.31-5.52a3.35,3.35,0,0,0-4.6-1.15L327.83,50a3.34,3.34,0,0,0-1.15,4.6l3.3,5.52Z" transform="translate(-38.05 -38.05)" fill="#cddffa"/><path d="M341.47,60l.75-.45a.55.55,0,0,0,.19-.76l-2.38-4a.56.56,0,0,0-.76-.19L330.18,60a.55.55,0,0,0-.19.76l2.38,4a.55.55,0,0,0,.76.19Z" transform="translate(-38.05 -38.05)" fill="#cddffa"/><path d="M425.59,204.33l-3.85-12.7h0L342.42,59.38l-8.54,5.12-.95.57,79.33,132.25h0l9.58,9.56,6.48,6.48Zm-10.16-8.91h0Zm3.15-1.89Z" transform="translate(-38.05 -38.05)" fill="#cddffa"/></g><rect x="374.54" y="48.26" width="11.06" height="154.22" transform="translate(734.39 8.49) rotate(150.39)" fill="#ffc82e"/><rect x="334.7" y="52.96" width="11.71" height="5.74" rx="0.55" transform="translate(626.15 -101.96) rotate(150.39)" fill="#fff4e9"/><path d="M331.18,44.19h11.06a0,0,0,0,1,0,0v6.43A3.35,3.35,0,0,1,338.89,54h-4.36a3.35,3.35,0,0,1-3.35-3.35V44.19A0,0,0,0,1,331.18,44.19Z" transform="translate(615.65 -112.68) rotate(150.39)" fill="#d83e3a"/><rect x="382.25" y="46.51" width="1.84" height="154.46" transform="translate(739.39 3.91) rotate(150.39)" fill="#ffb31a"/><rect x="379.21" y="48.24" width="1.84" height="154.46" transform="translate(734.55 8.65) rotate(150.39)" fill="#ffb31a"/><rect x="376.16" y="49.97" width="1.84" height="154.46" transform="translate(729.71 13.38) rotate(150.38)" fill="#ffb31a"/><path d="M413.37,195.13c.8-.45.25-1.41,1.06-1.87s1.34.51,2.15.05.25-1.42,1.05-1.87,1.35.5,2.15.05.25-1.42,1.05-1.87,1.35.5,2.15,0l3.55,12.78,2.52,9.09-6.33-6.63Z" transform="translate(-38.05 -38.05)" fill="#fff4e9"/><path d="M422.72,204.91a5.43,5.43,0,0,1,1.84-1.79,5.3,5.3,0,0,1,2-.67l2.52,9.09Z" transform="translate(-38.05 -38.05)" fill="#0d1b35"/><rect x="215.92" y="164.63" width="193.89" height="144.31" transform="translate(-46.79 423.5) rotate(-72.07)" fill="#fff4e9" style="mix-blend-mode:multiply"/><rect x="237.06" y="131.43" width="144.31" height="193.89" transform="translate(47.28 -122.16) rotate(17.93)" fill="#fff4e9"/><rect x="268.09" y="130.82" width="37.07" height="47.92" transform="translate(23.52 -118.78) rotate(17.93)" fill="#d83e3a"/><g clip-path="url(#clip-path)"><path d="M287.59,135.51a11,11,0,0,0-7.27,5c-2.14,3.55-2.06,8.17-4.6,11.46a20.32,20.32,0,0,1-3.8,3.42,13.17,13.17,0,0,0-3.54,3.64,5,5,0,0,0-.28,4.86,7.71,7.71,0,0,0,3.65,2.85,52.89,52.89,0,0,0,15.12,4.52,12.33,12.33,0,0,0,5.61-.18,8.54,8.54,0,0,0,4.95-5.15,22.4,22.4,0,0,0,1.12-7.2,31.49,31.49,0,0,1,.75-7.27,39.74,39.74,0,0,1,1.59-4.48,12.72,12.72,0,0,0,1.2-4,5.77,5.77,0,0,0-.92-3.7,5.9,5.9,0,0,0-3-2.12,17.39,17.39,0,0,0-3-.47,16.53,16.53,0,0,1-2-.75A12.15,12.15,0,0,0,287.59,135.51Z" transform="translate(-38.05 -38.05)" fill="#1a0f24"/><path d="M291.51,167.86c4.13,3,2.17,16.42,2.17,16.42s-3.3,2.12-8.56.38Z" transform="translate(-38.05 -38.05)" fill="#ffb31a"/><path d="M280.53,219.86l-.48.13c-7.87,2-19.45-4.22-25.05-7.65l-.82-.52c-1.54-1-2.45-1.61-2.45-1.61.08-.29.18-.61.3-1l.05-.17c.19-.55.4-1.16.65-1.83.33-.91.74-1.93,1.17-3,.23-.57.46-1.16.72-1.77.4-1,.81-1.95,1.25-3,.24-.58.5-1.17.75-1.76.42-1,.85-1.95,1.3-3,.25-.58.51-1.17.77-1.75.43-1,.87-2,1.31-2.95.25-.58.53-1.17.79-1.74l1.33-3,.79-1.72c.41-.91.82-1.8,1.23-2.69.05-.09.09-.18.13-.27l.33-.73c.16-.34.31-.67.47-1l.2-.45c.16-.35.31-.69.47-1v0c.22-.48.44-1,.65-1.42,0,0,0,0,0,0,.16-.34.32-.67.47-1s.23-.49.34-.73l.31-.68c.18-.37.35-.73.5-1.09s.38-.8.56-1.18l.21-.44c.2-.44.4-.86.6-1.29l1.39-2.94c.3-.62.58-1.21.82-1.73.76-1.61,1.27-2.66,1.4-2.95,0,0,0,0,0,0l0-.05h6.82l6.09,2,.89.66.18.12,1,.71.36.27,2.05,1.49.36.26.71.52a1.81,1.81,0,0,0,0,.23c-.17.95-.36,2-.59,3.22-.11.61-.23,1.23-.35,1.87-.19,1-.39,2.1-.62,3.22-.13.61-.25,1.23-.37,1.86,0,.15-.06.28-.09.42-.07.37-.16.73-.22,1.09s-.21,1-.31,1.5a1.06,1.06,0,0,1,0,.19.45.45,0,0,1,0,.11c-.05.28-.11.53-.15.8s-.14.64-.21,1c0,.17-.08.35-.12.53-.06.37-.14.75-.22,1.12s-.22,1-.32,1.49v.05c-.09.36-.16.72-.23,1.07l-.18.8c-.16.77-.32,1.56-.49,2.33l-.18.86c-.14.61-.26,1.23-.4,1.85l-.69,3.19c-.14.63-.27,1.25-.41,1.86-.24,1.08-.46,2.14-.7,3.18-.08.43-.18.85-.27,1.28,0,.19-.09.39-.13.57-.24,1.1-.47,2.16-.69,3.19-.14.63-.28,1.25-.41,1.85-.25,1.12-.49,2.19-.7,3.17-.15.66-.29,1.27-.43,1.86-.26,1.21-.5,2.28-.7,3.18-.17.74-.3,1.36-.42,1.85Z" transform="translate(-38.05 -38.05)" fill="#ffb31a"/><path d="M288.39,165.59a.1.1,0,0,0,0,0,1,1,0,0,1-1,.39,2.48,2.48,0,0,1-.91,2.8,3.38,3.38,0,0,1-3,.44,3.14,3.14,0,0,1-1.23-.67,2.07,2.07,0,0,1-.65-1.22,2.11,2.11,0,0,1-1.25.6,3.14,3.14,0,0,1-1.39-.17,3.39,3.39,0,0,1-2.16-2.11,2.49,2.49,0,0,1,.91-2.8,1,1,0,0,1-.61-.92.36.36,0,0,1,0-.1h2.82l6.09,2,.89.66.18.12,1,.71Z" transform="translate(-38.05 -38.05)" fill="#fff"/><path d="M273.07,161.89c-3.64,0-16.67,11-16.67,11s3.09,7,6.67,11L267.5,179Z" transform="translate(-38.05 -38.05)" fill="#ffb31a"/><path d="M296.58,155a7.83,7.83,0,0,1-4.14,4.19,22.06,22.06,0,0,1-2.56.84c-1.84.56-3,1.1-4.13,4.56a3.55,3.55,0,0,1-6.22-2,31.65,31.65,0,0,0,1.6-10.68c0-.61-.05-1-.07-1.18a.6.6,0,0,1,0-.08s.26-.73.66-1.8c.05-.13.1-.27.16-.4.95-2.49,2.57-6.37,3.79-7.53,4.47-4.23,13.77.72,13.22,5.06A29.41,29.41,0,0,1,296.58,155Z" transform="translate(-38.05 -38.05)" fill="#fea384"/><path d="M298.75,148.46a10.07,10.07,0,0,1-3.21-6,3,3,0,0,1-1.35,1.31,11.33,11.33,0,0,1-6.27,1.58,7.27,7.27,0,0,1-6.92,3.29c.46-2.38.55-4.84,1.71-7a8.72,8.72,0,0,1,5.41-4.53,9.05,9.05,0,0,1,4.17.14,10.44,10.44,0,0,1,6.3,4A6.5,6.5,0,0,1,298.75,148.46Z" transform="translate(-38.05 -38.05)" fill="#1a0f24"/><path d="M294.4,149.77a2.17,2.17,0,0,1,2.53,1,.43.43,0,0,1-.11.54.32.32,0,0,1-.48-.08,1.59,1.59,0,0,0-1-.71,1.4,1.4,0,0,0-.61,0c-.19,0-.38.11-.53-.05a.31.31,0,0,1-.07-.14A.43.43,0,0,1,294.4,149.77Z" transform="translate(-38.05 -38.05)" fill="#1a0f24"/><path d="M291.93,149a2.79,2.79,0,0,0-3-.83.39.39,0,0,0,.27.74,2,2,0,0,1,1.35.05,2,2,0,0,1,.6.36c.15.13.29.32.52.29a.44.44,0,0,0,.16-.06A.4.4,0,0,0,291.93,149Z" transform="translate(-38.05 -38.05)" fill="#1a0f24"/><path d="M291.29,155.48a2.35,2.35,0,0,0,1.13.08.34.34,0,0,0,.28-.4.35.35,0,0,0-.4-.29,1.81,1.81,0,0,1-1.91-1,.35.35,0,1,0-.66.21A2.49,2.49,0,0,0,291.29,155.48Z" transform="translate(-38.05 -38.05)" fill="#c16b5b"/><path d="M292.68,153.85a.07.07,0,0,0,.09,0c.34-.49.21-.73.05-.85a.88.88,0,0,0-.7-.07.1.1,0,0,0-.07.11.09.09,0,0,0,.11.06.72.72,0,0,1,.56,0c.14.11.11.32-.09.62a.08.08,0,0,0,0,.12Z" transform="translate(-38.05 -38.05)" fill="#c16b5b"/><path d="M289.35,150.6a.64.64,0,1,0,.8-.41A.64.64,0,0,0,289.35,150.6Z" transform="translate(-38.05 -38.05)"/><path d="M290,150.63a.23.23,0,0,0,.15.29.22.22,0,0,0,.29-.15.23.23,0,1,0-.44-.14Z" transform="translate(-38.05 -38.05)" fill="#fff"/><path d="M294,152.11a.64.64,0,0,0,.41.8.63.63,0,0,0,.8-.41.64.64,0,1,0-1.21-.39Z" transform="translate(-38.05 -38.05)"/><path d="M294.68,152.14a.23.23,0,0,0,.44.14.23.23,0,1,0-.44-.14Z" transform="translate(-38.05 -38.05)" fill="#fff"/><path d="M278.83,150.12a2,2,0,1,0,.9-3.07A2.28,2.28,0,0,0,278.83,150.12Z" transform="translate(-38.05 -38.05)" fill="#fea384"/><path d="M280.13,147.72a1.54,1.54,0,0,1,1.27.44,1.22,1.22,0,0,1,.37.54.78.78,0,0,1-.11.7,1.13,1.13,0,0,1-.49.31.82.82,0,0,0-.31.16.39.39,0,0,0-.1.45.41.41,0,0,0,.4.23.17.17,0,1,1,0,.34.75.75,0,0,1-.3,0,.73.73,0,0,1-.28-1.25,1.46,1.46,0,0,1,.42-.23.84.84,0,0,0,.35-.19.47.47,0,0,0,.05-.39.65.65,0,0,0-.09-.16.69.69,0,0,0-.53,0,.64.64,0,0,0-.3.43.17.17,0,0,1-.19.15h0a.17.17,0,0,1-.12-.19,1,1,0,0,1,.47-.69.84.84,0,0,1,.31-.08,1.09,1.09,0,0,0-.77-.2.69.69,0,0,0-.58.68.17.17,0,0,1-.15.19.18.18,0,0,1-.19-.15A1,1,0,0,1,280.13,147.72Z" transform="translate(-38.05 -38.05)" fill="#c16b5b"/></g><rect x="344.21" y="128.31" width="3.72" height="61.14" transform="translate(50.3 401.17) rotate(-72.07)" fill="#ffc82e"/><rect x="346.42" y="137.46" width="3.72" height="75.37" transform="translate(36.36 414.53) rotate(-72.07)" fill="#ffc82e"/><rect x="330.58" y="143.89" width="3.72" height="37.52" transform="translate(37.28 390.81) rotate(-72.07)" fill="#ffc82e"/><rect x="370.6" y="156.84" width="3.72" height="37.52" transform="translate(52.66 437.85) rotate(-72.07)" fill="#ffc82e"/><rect x="318.32" y="163" width="3.72" height="20.84" transform="matrix(0.31, -0.95, 0.95, 0.31, 18.56, 386.6)" fill="#ffc82e"/><rect x="372.07" y="187.75" width="3.72" height="20.84" transform="translate(32.2 454.87) rotate(-72.07)" fill="#ffc82e"/><rect x="331.15" y="158.77" width="3.72" height="52.33" transform="translate(16.48 406.77) rotate(-72.07)" fill="#ffc82e"/><rect x="358.2" y="159.05" width="3.72" height="54.53" transform="translate(33.88 433.47) rotate(-72.07)" fill="#ffc82e"/><path d="M264.35,197.43a6.68,6.68,0,1,1,8.41-4.3A6.68,6.68,0,0,1,264.35,197.43ZM268,186.19a5.14,5.14,0,1,0,3.3,6.47A5.14,5.14,0,0,0,268,186.19Z" transform="translate(-38.05 -38.05)" fill="#f7d4aa"/><path d="M265.67,193.33a.78.78,0,0,1-.45-.39l-1.9-3.8a.77.77,0,0,1,.34-1,.78.78,0,0,1,1,.34l1.58,3.16L275,188a.78.78,0,0,1,.6,1.43l-9.42,3.91A.78.78,0,0,1,265.67,193.33Z" transform="translate(-38.05 -38.05)" fill="#ff931d"/><rect x="326.52" y="158.28" width="2" height="96.44" transform="translate(-7.85 416.47) rotate(-72.07)" fill="#ff931d"/><rect x="339.94" y="182.42" width="2" height="65.55" transform="translate(-6.82 435.26) rotate(-72.07)" fill="#ff931d"/><rect x="306.4" y="178.94" width="2" height="59.5" transform="translate(-23.85 398.85) rotate(-72.07)" fill="#ff931d"/><rect x="279.71" y="198.8" width="27.31" height="2" transform="translate(37.71 -118.67) rotate(17.93)" fill="#ff931d"/><rect x="337.66" y="222.98" width="34.01" height="2" transform="translate(48.13 -136.37) rotate(17.93)" fill="#ff931d"/><path d="M257.1,219.82a6.68,6.68,0,1,1,8.42-4.3A6.7,6.7,0,0,1,257.1,219.82Zm3.64-11.25a5.14,5.14,0,1,0,3.31,6.47A5.14,5.14,0,0,0,260.74,208.57Z" transform="translate(-38.05 -38.05)" fill="#f7d4aa"/><path d="M258.43,215.72a.75.75,0,0,1-.45-.39l-1.91-3.8a.77.77,0,0,1,1.38-.69L259,214l8.76-3.64a.77.77,0,1,1,.59,1.42L259,215.7A.8.8,0,0,1,258.43,215.72Z" transform="translate(-38.05 -38.05)" fill="#ff931d"/><rect x="319.27" y="180.67" width="2" height="96.44" transform="translate(-34.16 425.08) rotate(-72.07)" fill="#ff931d"/><rect x="332.69" y="204.81" width="2" height="65.55" transform="translate(-33.14 443.86) rotate(-72.07)" fill="#ff931d"/><rect x="299.15" y="201.33" width="2" height="59.5" transform="translate(-50.15 407.47) rotate(-72.07)" fill="#ff931d"/><rect x="272.46" y="221.18" width="27.31" height="2" transform="translate(44.25 -115.35) rotate(17.93)" fill="#ff931d"/><rect x="330.42" y="245.37" width="34.01" height="2" transform="translate(54.68 -133.05) rotate(17.93)" fill="#ff931d"/><path d="M249.86,242.21a6.68,6.68,0,1,1,8.41-4.3A6.69,6.69,0,0,1,249.86,242.21ZM253.5,231a5.14,5.14,0,1,0,3.3,6.47A5.14,5.14,0,0,0,253.5,231Z" transform="translate(-38.05 -38.05)" fill="#f7d4aa"/><path d="M251.18,238.11a.78.78,0,0,1-.45-.39l-1.9-3.8a.77.77,0,1,1,1.38-.69l1.58,3.16,8.75-3.64a.77.77,0,0,1,.6,1.42l-9.42,3.92A.84.84,0,0,1,251.18,238.11Z" transform="translate(-38.05 -38.05)" fill="#ff931d"/><rect x="312.03" y="203.06" width="2" height="96.44" transform="translate(-60.47 433.68) rotate(-72.07)" fill="#ff931d"/><rect x="325.45" y="227.2" width="2" height="65.55" transform="translate(-59.46 452.46) rotate(-72.07)" fill="#ff931d"/><rect x="291.91" y="223.71" width="2" height="59.5" transform="translate(-76.48 416.05) rotate(-72.07)" fill="#ff931d"/><rect x="265.22" y="243.57" width="27.31" height="2" transform="translate(50.79 -112.03) rotate(17.93)" fill="#ff931d"/><rect x="323.17" y="267.76" width="34.01" height="2" transform="translate(61.22 -129.73) rotate(17.93)" fill="#ff931d"/><rect x="266.35" y="273" width="87.69" height="2.48" transform="translate(61.45 -120.24) rotate(17.93)" fill="#d83e3a"/><rect x="235.11" y="274.13" width="117.8" height="2.48" transform="translate(61.01 -115.2) rotate(17.93)" fill="#d83e3a"/><rect x="234.42" y="272.47" width="69.58" height="2.48" transform="translate(59.29 -107.64) rotate(17.93)" fill="#d83e3a"/><rect x="231.38" y="285.66" width="117.8" height="2.48" transform="translate(64.38 -113.49) rotate(17.93)" fill="#d83e3a"/><rect x="293.11" y="301.45" width="52.62" height="2.48" transform="translate(70.65 -121.69) rotate(17.93)" fill="#d83e3a"/><rect x="227.65" y="297.19" width="117.8" height="2.48" transform="translate(67.74 -111.78) rotate(17.93)" fill="#d83e3a"/><rect x="226.57" y="298" width="85.65" height="2.48" transform="translate(67.16 -106.46) rotate(17.93)" fill="#d83e3a"/><rect x="314.46" y="316.94" width="26.92" height="2.48" transform="translate(75.84 -123.56) rotate(17.93)" fill="#d83e3a"/><rect x="231.01" y="281.96" width="56.36" height="2.48" transform="translate(61.73 -104.1) rotate(17.93)" fill="#d83e3a"/><rect x="306.25" y="291.41" width="42.98" height="2.48" transform="translate(67.97 -124.74) rotate(17.93)" fill="#d83e3a"/><polygon points="142 319.7 17.99 288.15 0 358.84 124.01 390.4 137.97 335.53 137.97 335.53 142 319.7" fill="#cddffa" style="mix-blend-mode:multiply"/><rect x="80.86" y="308.43" width="72.95" height="127.96" transform="translate(-310.57 356.22) rotate(-75.72)" fill="#ff931d"/><polygon points="8.28 353.93 80.59 329.22 132.29 385.49 8.28 353.93" fill="#ffb31a"/><polygon points="22.24 299.06 76.42 345.61 146.25 330.62 22.24 299.06" fill="#ffc82e" style="mix-blend-mode:multiply"/><polygon points="150.28 314.79 146.25 330.62 77.36 341.92 22.24 299.06 26.27 283.23 150.28 314.79" fill="#ffc82e"/><rect x="120.6" y="233.95" width="145.76" height="195.83" transform="translate(-159.4 73.7) rotate(-24.8)" fill="#fff4e9" style="mix-blend-mode:multiply"/><rect x="116.64" y="241.15" width="145.76" height="195.83" transform="translate(-162.79 72.7) rotate(-24.8)" fill="#fff4e9"/><path d="M135,346.85a6.75,6.75,0,1,1,3.29-9A6.76,6.76,0,0,1,135,346.85ZM130,336a5.19,5.19,0,1,0,6.89,2.53A5.19,5.19,0,0,0,130,336Z" transform="translate(-38.05 -38.05)" fill="#f7d4aa"/><path d="M133.19,342.9a.74.74,0,0,1-.6,0l-4-1.51a.78.78,0,1,1,.55-1.46l3.33,1.26,4-8.7a.79.79,0,0,1,1-.38.78.78,0,0,1,.38,1l-4.31,9.36A.74.74,0,0,1,133.19,342.9Z" transform="translate(-38.05 -38.05)" fill="#ff931d"/><rect x="139.4" y="309.28" width="97.4" height="2.02" transform="translate(-150.85 69.45) rotate(-24.8)" fill="#ff931d"/><rect x="170.92" y="306.53" width="66.2" height="2.02" transform="translate(-148.23 75.87) rotate(-24.8)" fill="#ff931d"/><rect x="144.63" y="324.69" width="60.09" height="2.02" transform="translate(-158.55 65.24) rotate(-24.8)" fill="#ff931d"/><rect x="144.37" y="327.71" width="27.58" height="2.02" transform="translate(-161.34 58.6) rotate(-24.8)" fill="#ff931d"/><rect x="203.05" y="303.64" width="34.35" height="2.02" transform="translate(-145.52 82.4) rotate(-24.8)" fill="#ff931d"/><path d="M145,368.43a6.75,6.75,0,1,1,3.29-9A6.76,6.76,0,0,1,145,368.43Zm-5-10.84a5.19,5.19,0,1,0,6.89,2.54A5.2,5.2,0,0,0,140,357.59Z" transform="translate(-38.05 -38.05)" fill="#f7d4aa"/><path d="M143.16,364.48a.78.78,0,0,1-.6,0l-4-1.52a.78.78,0,0,1-.45-1,.77.77,0,0,1,1-.45l3.34,1.25,4-8.7a.78.78,0,0,1,1.42.66l-4.31,9.36A.82.82,0,0,1,143.16,364.48Z" transform="translate(-38.05 -38.05)" fill="#ff931d"/><rect x="149.37" y="330.85" width="97.4" height="2.02" transform="translate(-158.98 75.62) rotate(-24.8)" fill="#ff931d"/><rect x="180.89" y="328.1" width="66.2" height="2.02" transform="translate(-156.36 82.04) rotate(-24.8)" fill="#ff931d"/><rect x="154.6" y="346.26" width="60.1" height="2.02" transform="translate(-166.68 71.41) rotate(-24.8)" fill="#ff931d"/><rect x="154.34" y="349.29" width="27.58" height="2.02" transform="translate(-169.47 64.76) rotate(-24.8)" fill="#ff931d"/><rect x="213.02" y="325.22" width="34.35" height="2.02" transform="translate(-153.65 88.58) rotate(-24.8)" fill="#ff931d"/><path d="M155,390a6.75,6.75,0,1,1,3.3-8.95A6.75,6.75,0,0,1,155,390Zm-5-10.83a5.19,5.19,0,1,0,6.88,2.53A5.19,5.19,0,0,0,150,379.17Z" transform="translate(-38.05 -38.05)" fill="#f7d4aa"/><path d="M153.13,386.05a.74.74,0,0,1-.6,0l-4-1.51a.78.78,0,0,1,.55-1.46l3.34,1.26,4-8.7a.78.78,0,0,1,1-.38.79.79,0,0,1,.39,1l-4.31,9.36A.74.74,0,0,1,153.13,386.05Z" transform="translate(-38.05 -38.05)" fill="#ff931d"/><rect x="159.34" y="352.43" width="97.4" height="2.02" transform="translate(-167.11 81.79) rotate(-24.8)" fill="#ff931d"/><rect x="190.85" y="349.68" width="66.2" height="2.02" transform="translate(-164.49 88.21) rotate(-24.8)" fill="#ff931d"/><rect x="164.56" y="367.84" width="60.09" height="2.02" transform="translate(-174.81 77.58) rotate(-24.8)" fill="#ff931d"/><rect x="164.31" y="370.86" width="27.58" height="2.02" transform="translate(-177.6 70.93) rotate(-24.8)" fill="#ff931d"/><rect x="222.99" y="346.79" width="34.35" height="2.02" transform="translate(-161.78 94.75) rotate(-24.8)" fill="#ff931d"/><rect x="177.39" y="371.16" width="88.57" height="2.5" transform="translate(-173.81 89.26) rotate(-24.8)" fill="#d83e3a"/><rect x="150.95" y="383.09" width="118.98" height="2.5" transform="translate(-179.85 85.65) rotate(-24.8)" fill="#d83e3a"/><rect x="155.76" y="398.86" width="70.27" height="2.5" transform="translate(-188.27 78.91) rotate(-24.8)" fill="#d83e3a"/><rect x="156.08" y="394.2" width="118.98" height="2.5" transform="translate(-184.04 88.83) rotate(-24.8)" fill="#d83e3a"/><rect x="221.44" y="385.95" width="53.15" height="2.5" transform="translate(-177.59 101.67) rotate(-24.8)" fill="#d83e3a"/><rect x="161.22" y="405.32" width="118.98" height="2.5" transform="translate(-188.22 92) rotate(-24.8)" fill="#d83e3a"/><rect x="165.28" y="417.68" width="86.51" height="2.5" transform="translate(-194.53 88.04) rotate(-24.8)" fill="#d83e3a"/><rect x="251.34" y="391.62" width="27.19" height="2.5" transform="translate(-178.4 109.29) rotate(-24.8)" fill="#d83e3a"/><rect x="161.51" y="412.77" width="56.93" height="2.5" transform="translate(-194.19 79.8) rotate(-24.8)" fill="#d83e3a"/><rect x="225.6" y="372.8" width="43.41" height="2.5" transform="translate(-172.14 100.16) rotate(-24.8)" fill="#d83e3a"/><rect x="138.35" y="260.37" width="61.75" height="3.76" transform="translate(-132.44 57.11) rotate(-24.8)" fill="#ffc82e"/><rect x="143.95" y="270.92" width="76.12" height="3.76" transform="translate(-135.69 63.44) rotate(-24.8)" fill="#ffc82e"/><rect x="142.75" y="272.51" width="37.9" height="3.76" transform="translate(-138.23 55.07) rotate(-24.8)" fill="#ffc82e"/><rect x="181.32" y="254.69" width="37.9" height="3.76" transform="translate(-127.19 69.6) rotate(-24.8)" fill="#ffc82e"/><rect x="149.46" y="288.89" width="21.05" height="3.76" transform="translate(-145.26 55.86) rotate(-24.8)" fill="#ffc82e"/><rect x="206.3" y="270.43" width="21.05" height="3.76" transform="translate(-132.27 77.99) rotate(-24.8)" fill="#ffc82e"/><rect x="150.96" y="288.65" width="52.85" height="3.76" transform="translate(-143.55 63.14) rotate(-24.8)" fill="#ffc82e"/><rect x="170.87" y="271.14" width="55.08" height="3.76" transform="translate(-134.27 70.34) rotate(-24.8)" fill="#ffc82e"/><rect x="103.6" y="275.74" width="37.44" height="48.4" transform="translate(-152.58 40.91) rotate(-24.8)" fill="#385d93"/><g clip-path="url(#clip-path-2)"><path d="M135.78,305.89c5.09-.63,12.86,10.7,12.86,10.7s-1,3.83-6.08,6.14Z" transform="translate(-38.05 -38.05)" fill="#d83e3a"/><path d="M135.29,364.58s1.12-.15,2.92-.48l1-.19c6.5-1.29,19.34-4.63,23.82-11.48a5.08,5.08,0,0,0,.27-.43l-.65-1.12c-.25-.44-.57-1-1-1.66L160,346.38l-1-1.67-1.66-2.83c-.31-.54-.63-1.1-1-1.66l-1.67-2.84-.3-.52-.67-1.13-1.66-2.84c-.32-.55-.65-1.1-1-1.66l-1.68-2.83c-.32-.56-.65-1.1-1-1.65l-.45-.76-1.23-2.08-.42-.7-.57-.95s0,0,0-.05c-.27-.44-.54-.88-.79-1.32l-.6-1-.28-.47c-.17-.28-.34-.56-.5-.85s-.29-.46-.43-.7l-.06-.1a1.45,1.45,0,0,1-.1-.18l-.8-1.31c-.2-.32-.39-.65-.58-1-.07-.13-.15-.25-.23-.37-.34-.56-.67-1.11-1-1.64-.6-1-1.19-1.93-1.74-2.81-.35-.57-.69-1.11-1-1.63-.65-1-1.25-2-1.78-2.79l-.13-.2-.87.11-.46.05-3,.35-1.23.14-.21,0-1.12.13-5.86,2.71-.33.31-.79.73-.57.53-2.67,2.49,0,0-.64.59,0,0s0,0,0,0c.1.31.44,1.43,1,3.15.17.55.37,1.17.57,1.84l1,3.13c.15.45.29.91.44,1.38,0,.15.09.3.14.46.13.41.27.83.4,1.26s.25.76.37,1.15l.24.72c.08.26.16.52.25.77l.33,1.07,0,.05c.16.49.32,1,.48,1.5h0c.11.37.23.72.34,1.08.06.16.1.32.15.48.12.35.23.7.35,1.06s.17.51.25.77l.09.29c.3.93.61,1.88.93,2.83L126,339c.34,1,.69,2.08,1,3.11l.61,1.83c.36,1,.7,2.07,1,3.09l.63,1.83c.36,1.05.72,2.08,1.07,3.09.22.62.44,1.22.65,1.82.38,1.06.76,2.09,1.12,3.07l.68,1.81c.43,1.11.83,2.13,1.2,3,.27.65.54,1.26.78,1.79a.77.77,0,0,0,.07.16C135,364,135.15,364.31,135.29,364.58Z" transform="translate(-38.05 -38.05)" fill="#d83e3a"/><path d="M118,314.1c-2.7,2.51-4.8,19.62-4.8,19.62s7.1,3.09,12.48,3.57l-.06-6.65Z" transform="translate(-38.05 -38.05)" fill="#d83e3a"/><path d="M108.92,294a6.22,6.22,0,0,1-.86-2.42,2.71,2.71,0,0,1,.82-2.31,1.08,1.08,0,0,1-.73-1.07,1.05,1.05,0,0,1,.85-.95,14.2,14.2,0,0,1,11.09-8.54,4.47,4.47,0,0,1,2,.07,2.08,2.08,0,0,1,1.43,1.29,3.37,3.37,0,0,1,4.17.55,3.49,3.49,0,0,1,.31,4.25,2.29,2.29,0,0,1,1,1.83,5.68,5.68,0,0,1-.39,2.11,23.22,23.22,0,0,1-6,9.41,23.61,23.61,0,0,1-2.18,1.82c-.38.27-.77.53-1.16.78s-.78.63-1.12.66a4,4,0,0,1-1.33-.48c-.43-.18-.86-.38-1.27-.6a16.5,16.5,0,0,1-6.56-6.4Z" transform="translate(-38.05 -38.05)"/><path d="M130.73,292.88a7.92,7.92,0,0,1-.2,5.95,22.76,22.76,0,0,1-1.32,2.37c-1,1.67-1.49,2.88,0,6.21a3.58,3.58,0,0,1-6,2.77,32,32,0,0,0-6.13-9c-.43-.44-.74-.72-.86-.83l-.06-.05s-.31-.72-.74-1.78l-.17-.41c-1-2.5-2.45-6.49-2.34-8.18.42-6.2,10.71-8.91,13.28-5.31A29.89,29.89,0,0,1,130.73,292.88Z" transform="translate(-38.05 -38.05)" fill="#fea384"/><path d="M126.48,283.78a3.91,3.91,0,0,1-1.35,1.59,16.7,16.7,0,0,1-9.12,3.45.9.9,0,0,1-.44,1.67A5.89,5.89,0,0,1,116.8,294a5.42,5.42,0,0,1-1.18,3.34,1.48,1.48,0,0,1-.91.63c-.6.07-1.07-.5-1.42-1-1.24-1.85-2.51-3.84-2.57-6.06a7.5,7.5,0,0,1,2.78-5.73,13.71,13.71,0,0,1,5.91-2.73,11.39,11.39,0,0,1,3.81-.32A5.28,5.28,0,0,1,126.48,283.78Z" transform="translate(-38.05 -38.05)"/><path d="M125.53,290.49a2.19,2.19,0,0,1,2.54-1,.43.43,0,0,1,.28.47.31.31,0,0,1-.41.27,1.56,1.56,0,0,0-1.2.14,1.5,1.5,0,0,0-.47.4c-.12.14-.2.34-.42.32a.3.3,0,0,1-.15-.05A.43.43,0,0,1,125.53,290.49Z" transform="translate(-38.05 -38.05)"/><path d="M123.15,291.59a2.8,2.8,0,0,0-2.79,1.44.39.39,0,0,0,.16.53.41.41,0,0,0,.54-.17,2,2,0,0,1,1-.89,2.29,2.29,0,0,1,.69-.14c.2,0,.43.05.58-.14a.48.48,0,0,0,.08-.16A.4.4,0,0,0,123.15,291.59Z" transform="translate(-38.05 -38.05)"/><path d="M127.13,296.86a2.54,2.54,0,0,0,.9-.72.35.35,0,0,0-.56-.43,1.85,1.85,0,0,1-2.13.55.35.35,0,0,0-.48.13.36.36,0,0,0,.14.48A2.5,2.5,0,0,0,127.13,296.86Z" transform="translate(-38.05 -38.05)" fill="#c16b5b"/><path d="M127,294.7a.09.09,0,0,0,0-.1c-.09-.59-.34-.68-.55-.66a.85.85,0,0,0-.56.43.09.09,0,0,0,.14.1.68.68,0,0,1,.45-.35c.18,0,.29.15.35.51a.08.08,0,0,0,.1.07Z" transform="translate(-38.05 -38.05)" fill="#c16b5b"/><path d="M122.35,294.57a.64.64,0,1,0,.31-.85A.64.64,0,0,0,122.35,294.57Z" transform="translate(-38.05 -38.05)"/><path d="M122.86,294.14a.22.22,0,0,0,.31.11.23.23,0,1,0-.2-.42A.23.23,0,0,0,122.86,294.14Z" transform="translate(-38.05 -38.05)" fill="#fff"/><path d="M126.85,292.49a.64.64,0,1,0,.31-.85A.64.64,0,0,0,126.85,292.49Z" transform="translate(-38.05 -38.05)"/><path d="M127.36,292.06a.22.22,0,0,0,.31.11.23.23,0,1,0-.2-.42A.23.23,0,0,0,127.36,292.06Z" transform="translate(-38.05 -38.05)" fill="#fff"/><path d="M114.22,301.42a2.07,2.07,0,1,0-1.44-2.9A2.31,2.31,0,0,0,114.22,301.42Z" transform="translate(-38.05 -38.05)" fill="#fea384"/><path d="M113.53,298.75a1.55,1.55,0,0,1,1.25-.54,1.35,1.35,0,0,1,.64.14.79.79,0,0,1,.4.6,1,1,0,0,1-.15.56,1,1,0,0,0-.12.34.4.4,0,0,0,.24.4.42.42,0,0,0,.45-.11.17.17,0,0,1,.25,0,.18.18,0,0,1,0,.25.72.72,0,0,1-.25.18.74.74,0,0,1-1.06-.74,1.26,1.26,0,0,1,.15-.45.79.79,0,0,0,.12-.38.42.42,0,0,0-.22-.32.75.75,0,0,0-.18-.07.72.72,0,0,0-.38.37.62.62,0,0,0,.07.53.18.18,0,0,1,0,.25h0a.19.19,0,0,1-.22-.06,1,1,0,0,1-.12-.84,1,1,0,0,1,.17-.27,1.13,1.13,0,0,0-.71.39.67.67,0,0,0,0,.89.18.18,0,1,1-.23.27A1,1,0,0,1,113.53,298.75Z" transform="translate(-38.05 -38.05)" fill="#c16b5b"/><polygon points="84.32 271.97 84.15 269.97 89.25 272.67 87.97 276.35 84.32 271.97" fill="#ad2727"/><polygon points="91.91 268.47 90.5 267.04 89.25 272.67 92.88 274.09 91.91 268.47" fill="#ad2727"/></g><rect x="213.01" y="158.09" width="9.65" height="44.95" transform="translate(272.24 -124.9) rotate(69.42)" fill="#821919"/><path d="M337.36,135.68a56,56,0,1,0-32.75,72.13A56.08,56.08,0,0,0,337.36,135.68Zm-96,36.07A46.56,46.56,0,1,1,301.28,199,46.62,46.62,0,0,1,241.33,171.75Z" transform="translate(-38.05 -38.05)" fill="#385d93"/><path d="M333.28,137.21a51.65,51.65,0,1,0-30.2,66.53A51.73,51.73,0,0,0,333.28,137.21Zm-91.95,34.54A46.56,46.56,0,1,1,301.28,199,46.62,46.62,0,0,1,241.33,171.75Z" transform="translate(-38.05 -38.05)" fill="#cddffa" style="mix-blend-mode:multiply"/><circle cx="284.92" cy="155.38" r="46.56" transform="translate(-64.47 208.92) rotate(-45)" fill="#385d93" opacity="0.3"/><path d="M133.26,212.34h0a9.36,9.36,0,0,1,5.46-12.05l67.22-25.24,6.58,17.51L145.3,217.8A9.34,9.34,0,0,1,133.26,212.34Z" transform="translate(-38.05 -38.05)" fill="#d83e3a"/><path d="M210.78,188l-67.21,25.24a9.35,9.35,0,0,1-10.86-3.28,9.17,9.17,0,0,0,.55,2.43,9.34,9.34,0,0,0,12,5.46l67.22-25.24Z" transform="translate(-38.05 -38.05)" fill="#d83e3a" style="mix-blend-mode:multiply"/><path d="M300,116.05c-14.2-4.45-29-2.19-40.27,7.93-6.71,6,1.54,17.58,8.34,11.47,7.23-6.49,16.51-9.48,26.07-6.49C302.79,131.65,308.74,118.77,300,116.05Z" transform="translate(-38.05 -38.05)" fill="#fff" opacity="0.3" style="mix-blend-mode:overlay"/><path d="M303,163.24h.87C303.3,163.23,303,163.24,303,163.24Z" transform="translate(-38.05 -38.05)" fill="#fff"/><path d="M314,174.28s0-.33,0-.87Z" transform="translate(-38.05 -38.05)" fill="#fff"/><path d="M314,153.07c0,2.08-.21,7.26-1.56,8.61s-6.53,1.54-8.61,1.56c2.08,0,7.26.21,8.61,1.56s1.54,6.53,1.56,8.61c0-2.08.21-7.26,1.56-8.61s6.53-1.54,8.61-1.56c-2.08,0-7.26-.21-8.61-1.56S314,155.15,314,153.07Z" transform="translate(-38.05 -38.05)" fill="#fff"/><path d="M314,152.2v.87C314,152.53,314,152.2,314,152.2Z" transform="translate(-38.05 -38.05)" fill="#fff"/><path d="M325.05,163.24s-.33,0-.87,0Z" transform="translate(-38.05 -38.05)" fill="#fff"/><path d="M68.58,384.05h0Z" transform="translate(-38.05 -38.05)" fill="#fff"/><path d="M79.63,395.09v-.87C79.62,394.75,79.63,395.09,79.63,395.09Z" transform="translate(-38.05 -38.05)" fill="#fff"/><path d="M79.63,373.88c0,2.07-.22,7.25-1.57,8.6s-6.53,1.54-8.61,1.57c2.08,0,7.26.21,8.61,1.56s1.54,6.53,1.57,8.61c0-2.08.21-7.26,1.56-8.61s6.53-1.54,8.61-1.56c-2.08,0-7.26-.22-8.61-1.57S79.65,376,79.63,373.88Z" transform="translate(-38.05 -38.05)" fill="#fff"/><path d="M79.63,373s0,.34,0,.88Z" transform="translate(-38.05 -38.05)" fill="#fff"/><path d="M90.67,384.05h0Z" transform="translate(-38.05 -38.05)" fill="#fff"/><path d="M111.26,159.34h0Z" transform="translate(-38.05 -38.05)" fill="#fff"/><path d="M122.3,170.38s0-.34,0-.87Z" transform="translate(-38.05 -38.05)" fill="#fff"/><path d="M122.3,149.17c0,2.07-.21,7.26-1.56,8.6s-6.53,1.54-8.61,1.57c2.08,0,7.26.21,8.61,1.56s1.54,6.53,1.56,8.61c0-2.08.21-7.26,1.56-8.61s6.53-1.54,8.61-1.56c-2.08,0-7.26-.22-8.61-1.57S122.32,151.24,122.3,149.17Z" transform="translate(-38.05 -38.05)" fill="#fff"/><path d="M122.3,148.29v.88C122.31,148.63,122.3,148.29,122.3,148.29Z" transform="translate(-38.05 -38.05)" fill="#fff"/><path d="M133.34,159.34h0Z" transform="translate(-38.05 -38.05)" fill="#fff"/><path d="M227.3,94.57s.34,0,.87,0Z" transform="translate(-38.05 -38.05)" fill="#fff"/><path d="M238.34,105.62s0-.34,0-.88Z" transform="translate(-38.05 -38.05)" fill="#fff"/><path d="M238.34,84.4c0,2.08-.21,7.26-1.56,8.61s-6.53,1.54-8.61,1.56c2.08,0,7.26.21,8.61,1.56s1.54,6.53,1.56,8.61c0-2.08.22-7.26,1.57-8.61s6.53-1.54,8.61-1.56c-2.08,0-7.26-.21-8.61-1.56S238.37,86.48,238.34,84.4Z" transform="translate(-38.05 -38.05)" fill="#fff"/><path d="M238.34,83.53v.87C238.35,83.86,238.34,83.53,238.34,83.53Z" transform="translate(-38.05 -38.05)" fill="#fff"/><path d="M249.39,94.57h-.87C249.05,94.58,249.39,94.57,249.39,94.57Z" transform="translate(-38.05 -38.05)" fill="#fff"/><path d="M392,361.93h0Z" transform="translate(-38.05 -38.05)" fill="#fff"/><path d="M403.08,373v-.87C403.07,372.64,403.08,373,403.08,373Z" transform="translate(-38.05 -38.05)" fill="#fff"/><path d="M403.08,351.76c0,2.08-.22,7.26-1.56,8.61s-6.54,1.54-8.61,1.56c2.07,0,7.26.21,8.61,1.56s1.54,6.53,1.56,8.61c0-2.08.21-7.26,1.56-8.61s6.53-1.54,8.61-1.56c-2.08,0-7.26-.21-8.61-1.56S403.1,353.84,403.08,351.76Z" transform="translate(-38.05 -38.05)" fill="#fff"/><path d="M403.08,350.89s0,.33,0,.87Z" transform="translate(-38.05 -38.05)" fill="#fff"/><path d="M414.12,361.93h0Z" transform="translate(-38.05 -38.05)" fill="#fff"/><path d="M240.87,252.82s.33,0,.87,0Z" transform="translate(-38.05 -38.05)" fill="#fff"/><path d="M251.91,263.86s0-.33,0-.87Z" transform="translate(-38.05 -38.05)" fill="#fff"/><path d="M251.91,242.65c0,2.08-.21,7.26-1.56,8.61s-6.53,1.54-8.61,1.56c2.08,0,7.26.21,8.61,1.56s1.54,6.53,1.56,8.61c0-2.08.22-7.26,1.57-8.61s6.53-1.54,8.61-1.56c-2.08,0-7.26-.21-8.61-1.56S251.94,244.73,251.91,242.65Z" transform="translate(-38.05 -38.05)" fill="#fff"/><path d="M251.91,241.78v.87C251.92,242.11,251.91,241.78,251.91,241.78Z" transform="translate(-38.05 -38.05)" fill="#fff"/><path d="M263,252.82h-.87C262.62,252.83,263,252.82,263,252.82Z" transform="translate(-38.05 -38.05)" fill="#fff"/><path d="M318.2,185.05h.47C318.38,185,318.2,185.05,318.2,185.05Z" transform="translate(-38.05 -38.05)" fill="#fff"/><path d="M324.18,191s0-.18,0-.47Z" transform="translate(-38.05 -38.05)" fill="#fff"/><path d="M324.18,179.54c0,1.12-.11,3.93-.84,4.66s-3.54.84-4.67.85c1.13,0,3.94.11,4.67.84s.83,3.54.84,4.67c0-1.13.12-3.94.85-4.67s3.54-.83,4.66-.84c-1.12,0-3.93-.12-4.66-.85S324.19,180.66,324.18,179.54Z" transform="translate(-38.05 -38.05)" fill="#fff"/><path d="M324.18,179.06v.48C324.19,179.25,324.18,179.06,324.18,179.06Z" transform="translate(-38.05 -38.05)" fill="#fff"/><path d="M330.17,185.05s-.19,0-.48,0Z" transform="translate(-38.05 -38.05)" fill="#fff"/><path d="M54.31,280.39h0Z" transform="translate(-38.05 -38.05)" fill="#fff"/><path d="M60.3,286.38v-.48C60.29,286.19,60.3,286.38,60.3,286.38Z" transform="translate(-38.05 -38.05)" fill="#fff"/><path d="M60.3,274.88c0,1.13-.12,3.94-.85,4.67s-3.54.83-4.66.84c1.12,0,3.93.12,4.66.85s.83,3.54.85,4.66c0-1.12.11-3.93.84-4.66s3.54-.84,4.67-.85c-1.13,0-3.94-.11-4.67-.84S60.31,276,60.3,274.88Z" transform="translate(-38.05 -38.05)" fill="#fff"/><path d="M60.3,274.41s0,.18,0,.47Z" transform="translate(-38.05 -38.05)" fill="#fff"/><path d="M66.28,280.39h0Z" transform="translate(-38.05 -38.05)" fill="#fff"/><path d="M425.88,244.32h0Z" transform="translate(-38.05 -38.05)" fill="#fff"/><path d="M431.87,250.3v-.47C431.86,250.12,431.87,250.3,431.87,250.3Z" transform="translate(-38.05 -38.05)" fill="#fff"/><path d="M431.87,238.81c0,1.13-.12,3.93-.85,4.66s-3.54.84-4.66.85c1.12,0,3.93.11,4.66.85s.84,3.53.85,4.66c0-1.13.11-3.93.84-4.66s3.54-.84,4.67-.85c-1.13,0-3.94-.12-4.67-.85S431.88,239.94,431.87,238.81Z" transform="translate(-38.05 -38.05)" fill="#fff"/><path d="M431.87,238.34s0,.18,0,.47Z" transform="translate(-38.05 -38.05)" fill="#fff"/><path d="M437.85,244.32h0Z" transform="translate(-38.05 -38.05)" fill="#fff"/><path d="M348.05,115.35h0Z" transform="translate(-38.05 -38.05)" fill="#fff"/><path d="M354,121.33v-.47C354,121.15,354,121.33,354,121.33Z" transform="translate(-38.05 -38.05)" fill="#fff"/><path d="M354,109.84c0,1.12-.12,3.93-.85,4.66s-3.54.84-4.66.85c1.12,0,3.93.11,4.66.84s.83,3.54.85,4.67c0-1.13.11-3.94.84-4.67s3.54-.83,4.67-.84c-1.13,0-3.94-.12-4.67-.85S354.05,111,354,109.84Z" transform="translate(-38.05 -38.05)" fill="#fff"/><path d="M354,109.36s0,.19,0,.48Z" transform="translate(-38.05 -38.05)" fill="#fff"/><path d="M360,115.35h0Z" transform="translate(-38.05 -38.05)" fill="#fff"/><path d="M301.42,410.49h0Z" transform="translate(-38.05 -38.05)" fill="#fff"/><path d="M307.4,416.47v0Z" transform="translate(-38.05 -38.05)" fill="#fff"/><path d="M307.4,405c0,1.12-.12,3.93-.85,4.66s-3.53.84-4.66.85c1.13,0,3.93.11,4.66.84s.84,3.54.85,4.67c0-1.13.12-3.94.85-4.67s3.53-.83,4.66-.84c-1.13,0-3.93-.12-4.66-.85S307.41,406.1,307.4,405Z" transform="translate(-38.05 -38.05)" fill="#fff"/><path d="M307.4,404.5v0Z" transform="translate(-38.05 -38.05)" fill="#fff"/><path d="M313.38,410.49h0Z" transform="translate(-38.05 -38.05)" fill="#fff"/><path d="M89.1,252.62h0Z" transform="translate(-38.05 -38.05)" fill="#fff"/><path d="M95.08,258.6v0Z" transform="translate(-38.05 -38.05)" fill="#fff"/><path d="M95.08,247.11c0,1.13-.11,3.93-.84,4.66s-3.54.84-4.67.85c1.13,0,3.93.12,4.67.85s.83,3.53.84,4.66c0-1.13.12-3.93.85-4.66s3.54-.84,4.66-.85c-1.12,0-3.93-.11-4.66-.85S95.09,248.24,95.08,247.11Z" transform="translate(-38.05 -38.05)" fill="#fff"/><path d="M95.08,246.64v0Z" transform="translate(-38.05 -38.05)" fill="#fff"/><path d="M101.06,252.62h0Z" transform="translate(-38.05 -38.05)" fill="#fff"/><path d="M94.61,362.32h0Z" transform="translate(-38.05 -38.05)" fill="#fff"/><path d="M100.59,368.31v0Z" transform="translate(-38.05 -38.05)" fill="#fff"/><path d="M100.59,356.81c0,1.13-.11,3.94-.84,4.67s-3.54.83-4.67.84c1.13,0,3.93.12,4.67.85s.83,3.54.84,4.66c0-1.12.12-3.93.85-4.66s3.54-.84,4.66-.85c-1.12,0-3.93-.11-4.66-.84S100.6,357.94,100.59,356.81Z" transform="translate(-38.05 -38.05)" fill="#fff"/><path d="M100.59,356.34v0Z" transform="translate(-38.05 -38.05)" fill="#fff"/><path d="M106.57,362.32h0Z" transform="translate(-38.05 -38.05)" fill="#fff"/></g></g></svg>