<svg id="Layer_1" data-name="Layer 1" xmlns="http://www.w3.org/2000/svg" viewBox="0 0 217.53 108.12"><g id="OBJECTS"><path d="M198.47,89H71a45,45,0,0,0,0,90.06H205.91a41.76,41.76,0,0,1,29.72,12.31l5.31,5.31a1.5,1.5,0,0,0,1.06.44,1.39,1.39,0,0,0,.57-.12,1.49,1.49,0,0,0,.93-1.38V134A45.08,45.08,0,0,0,198.47,89Z" transform="translate(-25.97 -89)" fill="#fe7649"/><path d="M237.5,184.91a47.63,47.63,0,0,0-31.59-11.85H71A39,39,0,0,1,71,95H198.47a39.08,39.08,0,0,1,39,39Z" transform="translate(-25.97 -89)" fill="#fe7649" opacity="0.4" style="isolation:isolate"/><rect x="46.7" y="31.23" width="25.83" height="25.83" rx="7.5" fill="#fff"/><rect x="94.39" y="31.23" width="25.83" height="25.83" rx="7.5" fill="#fff"/><rect x="141.83" y="31.23" width="25.83" height="25.83" rx="7.5" fill="#fff"/></g></svg>