<svg id="Layer_1" data-name="Layer 1" xmlns="http://www.w3.org/2000/svg" viewBox="0 0 179 64.15"><g id="OBJECTS"><path d="M164.67,53.42H26A20.21,20.21,0,0,0,5.83,73.61V78.7A20.2,20.2,0,0,0,26,98.88H78.37a17.27,17.27,0,0,1,12.35,5.24l12.56,13a1.51,1.51,0,0,0,1.08.45,1.22,1.22,0,0,0,.56-.11,1.48,1.48,0,0,0,.94-1.39A17.2,17.2,0,0,1,123,98.89h41.6a20.21,20.21,0,0,0,20.19-20.18V73.62A20.23,20.23,0,0,0,164.67,53.42Z" transform="translate(-5.83 -53.42)" fill="#f8c45f"/><path d="M95.07,100A23.37,23.37,0,0,0,78.4,92.92H26A14.19,14.19,0,0,1,11.83,78.74V73.65A14.2,14.2,0,0,1,26,59.42H164.67a14.21,14.21,0,0,1,14.19,14.19V78.7a14.2,14.2,0,0,1-14.19,14.18h-41.6a23.22,23.22,0,0,0-21.29,14Z" transform="translate(-5.83 -53.42)" fill="#f8c45f" opacity="0.67" style="isolation:isolate"/><rect x="52.41" y="11.9" width="15.93" height="15.93" rx="7.5" fill="#fff"/><rect x="81.83" y="11.9" width="15.93" height="15.93" rx="7.5" fill="#fff"/><rect x="111.08" y="11.9" width="15.93" height="15.93" rx="7.5" fill="#fff"/></g></svg>